<svg width="151" height="40" viewBox="0 0 151 40" fill="none" xmlns="http://www.w3.org/2000/svg">
<g opacity="0.84">
<path fill-rule="evenodd" clip-rule="evenodd" d="M13.4788 23.7444L17.2862 27.5518C19.6032 29.8687 23.3597 29.8687 25.6766 27.5518C26.4408 26.7877 26.9529 25.8669 27.213 24.8929L29.8719 27.5518C32.1888 29.8687 35.9453 29.8687 38.2623 27.5518C40.5792 25.2348 40.5792 21.4783 38.2623 19.1614L29.8718 10.7709C27.5549 8.45396 23.7984 8.45396 21.4814 10.7709C20.7173 11.5351 20.2052 12.4558 19.9451 13.4298L17.2862 10.7709C14.9692 8.45397 11.2127 8.45397 8.89576 10.7709L1.99113 17.6756C-0.663711 20.3304 -0.66371 24.6347 1.99113 27.2896C4.64598 29.9444 8.95033 29.9444 11.6052 27.2896C12.6102 26.2846 13.2347 25.0432 13.4788 23.7444ZM15.1886 12.8685C14.0301 11.7101 12.1518 11.7101 10.9934 12.8685C9.83539 14.0265 9.83489 15.9037 10.9919 17.0623L19.3838 25.4542C20.5423 26.6127 22.4205 26.6127 23.579 25.4542C24.7369 24.2963 24.7375 22.4194 23.5809 21.2608L15.1886 12.8685ZM9.50757 19.7732L6.79815 17.0637L4.08874 19.7732C2.59238 21.2695 2.59238 23.6956 4.08874 25.192C5.58511 26.6883 8.0112 26.6884 9.50757 25.192C11.0039 23.6956 11.0039 21.2695 9.50757 19.7732ZM23.5766 17.0613C22.4205 15.9026 22.4214 14.0262 23.579 12.8685C24.7375 11.7101 26.6158 11.7101 27.7742 12.8685L36.1647 21.259C37.3232 22.4174 37.3232 24.2957 36.1647 25.4542C35.0062 26.6127 33.1279 26.6127 31.9695 25.4542L23.5766 17.0613Z" fill="#0A0A0A" fill-opacity="0.8"/>
</g>
<g opacity="0.84">
<path d="M50.4608 27.5H46.6666V9.61665H50.4608L55.7775 21.29L61.1183 9.61665H64.9608V27.5H61.1666V23.7542C61.1666 19.8875 61.1666 19.0417 61.36 17.7125L57.5658 25.8333H53.9891L50.2191 17.7125C50.4366 19.0417 50.4608 20.54 50.4608 22.4975V27.5Z" fill="#0A0A0A" fill-opacity="0.8"/>
<path d="M71.8757 27.8142C69.314 27.8142 67.719 26.3158 67.719 23.9475C67.719 21.7242 69.2898 20.3467 72.1898 20.1292L75.5732 19.8633V19.67C75.5732 18.4858 74.8482 17.8575 73.519 17.8575C71.9482 17.8575 71.1023 18.4617 71.1023 19.5492H68.009C68.009 16.8183 70.2565 15.03 73.7123 15.03C77.2165 15.03 79.1982 16.9875 79.1982 20.4433V27.5H75.9115L75.6698 25.905C75.2832 27.0167 73.6882 27.8142 71.8757 27.8142ZM73.1807 25.0592C74.6065 25.0592 75.5973 24.3583 75.5973 22.9808V22.3283L73.7123 22.4975C72.0932 22.6425 71.5132 23.005 71.5132 23.7783C71.5132 24.6483 72.0448 25.0592 73.1807 25.0592Z" fill="#0A0A0A" fill-opacity="0.8"/>
<path d="M81.2633 21.2408C81.2633 17.5675 83.6558 15.0058 87.0633 15.0058C88.7066 15.0058 90.0116 15.6342 90.6641 16.625L90.8575 15.4167H94.3616V26.7267C94.3616 31.0525 91.8725 33.6625 87.74 33.6625C84.0425 33.6625 81.5533 31.56 81.215 28.1283H84.985C85.0574 29.4817 86.0725 30.2792 87.7158 30.2792C89.5041 30.2792 90.64 29.2158 90.64 27.5V25.9292C89.915 26.7992 88.5616 27.355 86.9908 27.355C83.6075 27.355 81.2633 24.8658 81.2633 21.2408ZM85.0091 21.1442C85.0091 22.8842 86.1691 24.1167 87.8125 24.1167C89.5041 24.1167 90.64 22.9325 90.64 21.1442C90.64 19.38 89.5041 18.2442 87.7883 18.2442C86.145 18.2442 85.0091 19.4283 85.0091 21.1442Z" fill="#0A0A0A" fill-opacity="0.8"/>
<path d="M100.882 27.5H97.1604V15.4167H100.665L100.906 16.6733C101.655 15.6342 103.033 15.03 104.604 15.03C107.48 15.03 109.147 16.8667 109.147 20.0325V27.5H105.425V20.9267C105.425 19.4042 104.58 18.4133 103.299 18.4133C101.825 18.4133 100.882 19.38 100.882 20.8783V27.5Z" fill="#0A0A0A" fill-opacity="0.8"/>
<path d="M111.164 21.4342C111.164 17.6158 113.967 15.0542 117.834 15.0542C121.676 15.0542 124.48 17.6158 124.48 21.4342C124.48 25.2525 121.676 27.79 117.834 27.79C113.967 27.79 111.164 25.2525 111.164 21.4342ZM114.91 21.41C114.91 23.2467 116.094 24.455 117.834 24.455C119.55 24.455 120.734 23.2467 120.734 21.41C120.734 19.5975 119.55 18.3892 117.834 18.3892C116.094 18.3892 114.91 19.5975 114.91 21.41Z" fill="#0A0A0A" fill-opacity="0.8"/>
<path d="M130.359 27.5H126.637V9.27832H130.359V27.5Z" fill="#0A0A0A" fill-opacity="0.8"/>
<path d="M134.987 13.5317C133.803 13.5317 132.861 12.5892 132.861 11.405C132.861 10.2208 133.803 9.30249 134.987 9.30249C136.147 9.30249 137.09 10.2208 137.09 11.405C137.09 12.5892 136.147 13.5317 134.987 13.5317ZM133.151 27.5V15.4167H136.872V27.5H133.151Z" fill="#0A0A0A" fill-opacity="0.8"/>
<path d="M143.314 27.8142C140.752 27.8142 139.157 26.3158 139.157 23.9475C139.157 21.7242 140.728 20.3467 143.628 20.1292L147.011 19.8633V19.67C147.011 18.4858 146.286 17.8575 144.957 17.8575C143.386 17.8575 142.54 18.4617 142.54 19.5492H139.447C139.447 16.8183 141.694 15.03 145.15 15.03C148.654 15.03 150.636 16.9875 150.636 20.4433V27.5H147.349L147.108 25.905C146.721 27.0167 145.126 27.8142 143.314 27.8142ZM144.619 25.0592C146.044 25.0592 147.035 24.3583 147.035 22.9808V22.3283L145.15 22.4975C143.531 22.6425 142.951 23.005 142.951 23.7783C142.951 24.6483 143.483 25.0592 144.619 25.0592Z" fill="#0A0A0A" fill-opacity="0.8"/>
</g>
</svg>
