<svg width="165" height="40" viewBox="0 0 165 40" fill="none" xmlns="http://www.w3.org/2000/svg">
<g opacity="0.84">
<g transform="translate(82.5 20) scale(0.82) translate(-82.5 -14.5)">
<path fill-rule="evenodd" clip-rule="evenodd" d="M5.85754 0C2.62251 0 0 2.62254 0 5.8576V20.5016C0 23.7367 2.62251 26.3592 5.85754 26.3592H20.5014C23.7364 26.3592 26.3589 23.7367 26.3589 20.5016V5.8576C26.3589 2.62254 23.7364 0 20.5014 0H5.85754ZM5.85754 3.661C4.6444 3.661 3.66096 4.64445 3.66096 5.8576V20.5016C3.66096 21.7148 4.6444 22.6982 5.85754 22.6982H10.9829C12.196 22.6982 13.1795 21.7148 13.1795 20.5016V5.8576C13.1795 4.64445 12.196 3.661 10.9829 3.661H5.85754Z" fill="#0A0A0A" fill-opacity="0.8"/>
<path d="M34.0105 22.844V4.39258H40.8375C42.3136 4.39258 43.5349 4.6386 44.5013 5.13064C45.4678 5.62267 46.1883 6.29923 46.6628 7.1603C47.1372 8.02136 47.3745 8.98787 47.3745 10.0598C47.3745 11.079 47.146 12.0192 46.6891 12.8802C46.2322 13.7237 45.5206 14.4091 44.5541 14.9363C43.5876 15.4459 42.3487 15.7007 40.8375 15.7007H37.3844V22.844H34.0105ZM37.3844 12.9593H40.6266C41.804 12.9593 42.6474 12.7045 43.157 12.1949C43.6842 11.6677 43.9478 10.956 43.9478 10.0598C43.9478 9.14602 43.6842 8.43432 43.157 7.92471C42.6474 7.39753 41.804 7.13394 40.6266 7.13394H37.3844V12.9593Z" fill="#0A0A0A" fill-opacity="0.8"/>
<path d="M53.965 23.1603C52.6998 23.1603 51.5576 22.8704 50.5384 22.2905C49.5367 21.7106 48.7372 20.911 48.1397 19.8918C47.5598 18.855 47.2699 17.66 47.2699 16.3069C47.2699 14.9538 47.5686 13.7677 48.1661 12.7484C48.7635 11.7117 49.5631 10.9033 50.5647 10.3234C51.5839 9.7435 52.7262 9.45355 53.9914 9.45355C55.239 9.45355 56.3637 9.7435 57.3653 10.3234C58.3845 10.9033 59.1841 11.7117 59.764 12.7484C60.3615 13.7677 60.6602 14.9538 60.6602 16.3069C60.6602 17.66 60.3615 18.855 59.764 19.8918C59.1841 20.911 58.3845 21.7106 57.3653 22.2905C56.3461 22.8704 55.2127 23.1603 53.965 23.1603ZM53.965 20.2345C54.8437 20.2345 55.6081 19.9094 56.2582 19.2592C56.9084 18.5914 57.2335 17.6073 57.2335 16.3069C57.2335 15.0066 56.9084 14.0313 56.2582 13.3811C55.6081 12.7133 54.8524 12.3794 53.9914 12.3794C53.0952 12.3794 52.322 12.7133 51.6718 13.3811C51.0392 14.0313 50.7229 15.0066 50.7229 16.3069C50.7229 17.6073 51.0392 18.5914 51.6718 19.2592C52.322 19.9094 53.0864 20.2345 53.965 20.2345Z" fill="#0A0A0A" fill-opacity="0.8"/>
<path d="M64.1888 22.844L60.3667 9.76986H63.7143L65.9812 19.1801L68.6171 9.76986H72.36L74.9959 19.1801L77.2892 9.76986H80.6367L76.7883 22.844H73.2826L70.4886 13.0648L67.6945 22.844H64.1888Z" fill="#0A0A0A" fill-opacity="0.8"/>
<path d="M87.0731 23.1603C85.7551 23.1603 84.5865 22.8792 83.5673 22.3168C82.5481 21.7545 81.7486 20.9637 81.1687 19.9445C80.5888 18.9253 80.2988 17.7479 80.2988 16.4124C80.2988 15.0593 80.58 13.8555 81.1423 12.8012C81.7222 11.7468 82.513 10.9297 83.5146 10.3498C84.5338 9.75228 85.7287 9.45355 87.0994 9.45355C88.3822 9.45355 89.5156 9.73471 90.4997 10.297C91.4838 10.8594 92.2482 11.6326 92.7929 12.6167C93.3553 13.5832 93.6364 14.6639 93.6364 15.8588C93.6364 16.0521 93.6276 16.2542 93.6101 16.4651C93.6101 16.676 93.6013 16.8956 93.5837 17.1241H83.6464C83.7167 18.1433 84.0681 18.9429 84.7007 19.5228C85.3509 20.1027 86.1329 20.3926 87.0467 20.3926C87.732 20.3926 88.3031 20.2432 88.76 19.9445C89.2345 19.6282 89.5859 19.224 89.8144 18.732H93.241C92.995 19.5579 92.5821 20.3135 92.0022 20.9989C91.4398 21.6666 90.7369 22.1938 89.8935 22.5804C89.0675 22.967 88.1274 23.1603 87.0731 23.1603ZM87.0994 12.1949C86.2735 12.1949 85.5442 12.4321 84.9116 12.9066C84.279 13.3635 83.8748 14.0664 83.6991 15.0153H90.2098C90.157 14.1543 89.8407 13.4689 89.2608 12.9593C88.6809 12.4497 87.9605 12.1949 87.0994 12.1949Z" fill="#0A0A0A" fill-opacity="0.8"/>
<path d="M94.8926 22.844V9.76986H97.8975L98.2138 12.2213C98.6883 11.3778 99.3297 10.71 100.138 10.218C100.964 9.70835 101.93 9.45355 103.037 9.45355V13.012H102.089C101.351 13.012 100.692 13.1263 100.112 13.3547C99.5318 13.5832 99.0749 13.9785 98.741 14.5409C98.4247 15.1032 98.2665 15.8852 98.2665 16.8868V22.844H94.8926Z" fill="#0A0A0A" fill-opacity="0.8"/>
<path d="M109.166 23.1603C108.006 23.1603 106.987 22.9758 106.108 22.6068C105.229 22.2202 104.526 21.693 103.999 21.0252C103.472 20.3575 103.156 19.5843 103.05 18.7056H106.451C106.556 19.2152 106.837 19.6546 107.294 20.0236C107.769 20.375 108.375 20.5508 109.113 20.5508C109.851 20.5508 110.387 20.4014 110.721 20.1027C111.072 19.8039 111.248 19.4613 111.248 19.0747C111.248 18.5123 111.002 18.1345 110.51 17.9412C110.018 17.7303 109.332 17.5282 108.454 17.3349C107.892 17.2119 107.32 17.0626 106.741 16.8868C106.161 16.7111 105.625 16.4915 105.133 16.2279C104.658 15.9467 104.272 15.5952 103.973 15.1735C103.674 14.7342 103.525 14.1982 103.525 13.5656C103.525 12.4058 103.982 11.4305 104.895 10.6397C105.827 9.84893 107.127 9.45355 108.797 9.45355C110.343 9.45355 111.573 9.81379 112.487 10.5343C113.418 11.2548 113.972 12.2476 114.147 13.5129H110.958C110.765 12.5464 110.035 12.0631 108.77 12.0631C108.138 12.0631 107.646 12.1861 107.294 12.4321C106.96 12.6782 106.793 12.9857 106.793 13.3547C106.793 13.7413 107.048 14.0488 107.558 14.2773C108.067 14.5057 108.744 14.7166 109.587 14.9099C110.501 15.1208 111.336 15.358 112.091 15.6216C112.865 15.8676 113.48 16.2454 113.936 16.755C114.393 17.2471 114.622 17.9588 114.622 18.8901C114.639 19.6985 114.429 20.4278 113.989 21.078C113.55 21.7281 112.917 22.2378 112.091 22.6068C111.265 22.9758 110.29 23.1603 109.166 23.1603Z" fill="#0A0A0A" fill-opacity="0.8"/>
<path d="M120.932 23.1603C119.298 23.1603 118.032 22.6507 117.136 21.6315C116.258 20.6123 115.818 19.1186 115.818 17.1504V9.76986H119.166V16.8341C119.166 17.9588 119.394 18.8198 119.851 19.4173C120.308 20.0148 121.029 20.3135 122.013 20.3135C122.944 20.3135 123.708 19.9797 124.306 19.3119C124.921 18.6441 125.228 17.7128 125.228 16.5178V9.76986H128.602V22.844H125.624L125.36 20.6299C124.956 21.4031 124.367 22.0181 123.594 22.475C122.839 22.9319 121.951 23.1603 120.932 23.1603Z" fill="#0A0A0A" fill-opacity="0.8"/>
<path d="M130.484 22.844V9.76986H133.489L133.806 12.2213C134.28 11.3778 134.921 10.71 135.73 10.218C136.556 9.70835 137.522 9.45355 138.629 9.45355V13.012H137.68C136.942 13.012 136.283 13.1263 135.703 13.3547C135.124 13.5832 134.667 13.9785 134.333 14.5409C134.016 15.1032 133.858 15.8852 133.858 16.8868V22.844H130.484Z" fill="#0A0A0A" fill-opacity="0.8"/>
<path d="M144.58 18.9429C143.948 18.9429 143.359 18.8726 142.814 18.732L141.839 19.7073C142.138 19.8654 142.542 19.9972 143.051 20.1027C143.561 20.2081 144.387 20.3135 145.529 20.419C147.269 20.5771 148.534 20.9901 149.325 21.6579C150.116 22.3256 150.511 23.2482 150.511 24.4256C150.511 25.1988 150.3 25.928 149.878 26.6134C149.457 27.3163 148.806 27.8786 147.928 28.3004C147.049 28.7397 145.924 28.9594 144.554 28.9594C142.691 28.9594 141.189 28.6079 140.046 27.905C138.904 27.2197 138.333 26.1829 138.333 24.7946C138.333 23.6172 138.904 22.598 140.046 21.7369C139.695 21.5788 139.387 21.4118 139.124 21.2361C138.878 21.0604 138.658 20.8759 138.465 20.6826V20.0763L140.758 17.6513C139.739 16.755 139.229 15.604 139.229 14.1982C139.229 13.3196 139.44 12.52 139.862 11.7995C140.301 11.079 140.916 10.5079 141.707 10.0862C142.498 9.66442 143.456 9.45355 144.58 9.45355C145.318 9.45355 146.004 9.55898 146.636 9.76986H151.592V11.8259L149.351 11.984C149.703 12.6518 149.878 13.3899 149.878 14.1982C149.878 15.0768 149.667 15.8764 149.246 16.5969C148.824 17.3174 148.209 17.8885 147.401 18.3102C146.61 18.732 145.67 18.9429 144.58 18.9429ZM144.58 16.3597C145.266 16.3597 145.828 16.1751 146.267 15.8061C146.724 15.4371 146.952 14.9099 146.952 14.2246C146.952 13.5392 146.724 13.012 146.267 12.643C145.828 12.274 145.266 12.0895 144.58 12.0895C143.86 12.0895 143.28 12.274 142.84 12.643C142.401 13.012 142.182 13.5392 142.182 14.2246C142.182 14.9099 142.401 15.4371 142.84 15.8061C143.28 16.1751 143.86 16.3597 144.58 16.3597ZM141.417 24.4519C141.417 25.1021 141.716 25.5854 142.313 25.9017C142.928 26.2356 143.675 26.4025 144.554 26.4025C145.397 26.4025 146.083 26.2268 146.61 25.8753C147.137 25.5414 147.401 25.0846 147.401 24.5047C147.401 24.0302 147.225 23.6348 146.873 23.3185C146.54 23.0022 145.863 22.8089 144.844 22.7386C144.123 22.6859 143.456 22.6068 142.84 22.5014C142.331 22.7825 141.962 23.09 141.733 23.4239C141.523 23.7578 141.417 24.1005 141.417 24.4519Z" fill="#0A0A0A" fill-opacity="0.8"/>
<path d="M158.308 23.1603C156.99 23.1603 155.821 22.8792 154.802 22.3168C153.783 21.7545 152.984 20.9637 152.404 19.9445C151.824 18.9253 151.534 17.7479 151.534 16.4124C151.534 15.0593 151.815 13.8555 152.377 12.8012C152.957 11.7468 153.748 10.9297 154.75 10.3498C155.769 9.75228 156.964 9.45355 158.334 9.45355C159.617 9.45355 160.751 9.73471 161.735 10.297C162.719 10.8594 163.483 11.6326 164.028 12.6167C164.59 13.5832 164.871 14.6639 164.871 15.8588C164.871 16.0521 164.863 16.2542 164.845 16.4651C164.845 16.676 164.836 16.8956 164.819 17.1241H154.881C154.952 18.1433 155.303 18.9429 155.936 19.5228C156.586 20.1027 157.368 20.3926 158.282 20.3926C158.967 20.3926 159.538 20.2432 159.995 19.9445C160.469 19.6282 160.821 19.224 161.049 18.732H164.476C164.23 19.5579 163.817 20.3135 163.237 20.9989C162.675 21.6666 161.972 22.1938 161.128 22.5804C160.303 22.967 159.362 23.1603 158.308 23.1603ZM158.334 12.1949C157.508 12.1949 156.779 12.4321 156.147 12.9066C155.514 13.3635 155.11 14.0664 154.934 15.0153H161.445C161.392 14.1543 161.076 13.4689 160.496 12.9593C159.916 12.4497 159.195 12.1949 158.334 12.1949Z" fill="#0A0A0A" fill-opacity="0.8"/>
</g>
</g>
</svg>
