<svg width="163" height="40" viewBox="0 0 163 40" fill="none" xmlns="http://www.w3.org/2000/svg">
<g opacity="0.84">
<rect x="2.5" y="13.3335" width="31.6667" height="13.3333" rx="6.66667" stroke="#0A0A0A" stroke-opacity="0.8" stroke-width="5"/>
</g>
<g opacity="0.84">
<path d="M47.0517 9.5166H43.125V27.7083H47.0517V9.5166Z" fill="#0A0A0A" fill-opacity="0.8"/>
<path d="M52.9145 10.3499H49.1678V27.7083H52.9145V23.0585L57.7978 27.7083H62.8624L55.6582 20.9442L62.4899 15.5916H57.2228L52.9145 19.0551V10.3499Z" fill="#0A0A0A" fill-opacity="0.8"/>
<path d="M112.551 9.5166H108.625V27.7083H122.451V24.2316H112.551V9.5166Z" fill="#0A0A0A" fill-opacity="0.8"/>
<path fill-rule="evenodd" clip-rule="evenodd" d="M140.832 10.3499H137.086V27.7083H141.072L140.932 26.6847C141.815 27.6106 143.028 28.0683 144.562 28.0683C145.566 28.0683 146.487 27.8105 147.292 27.2426C148.091 26.6783 148.698 25.9046 149.139 24.9308C149.58 23.9558 149.81 22.846 149.81 21.6049C149.81 20.4076 149.579 19.3205 149.139 18.3466C148.697 17.3707 148.09 16.6204 147.292 16.0572L147.288 16.0549C146.488 15.5136 145.57 15.2316 144.562 15.2316C142.969 15.2316 141.723 15.7249 140.832 16.7233V10.3499ZM141.55 19.3972C142.027 18.8165 142.642 18.5283 143.414 18.5283C144.162 18.5283 144.78 18.8156 145.282 19.3795C145.784 19.9658 146.041 20.7024 146.041 21.6274C146.041 22.5764 145.783 23.3132 145.281 23.8994C144.779 24.4845 144.162 24.7716 143.414 24.7716C142.642 24.7716 142.027 24.4834 141.55 23.9027L141.547 23.8994C141.047 23.3158 140.81 22.5805 140.81 21.6274C140.81 20.7207 141.046 19.9849 141.547 19.4005L141.55 19.3972Z" fill="#0A0A0A" fill-opacity="0.8"/>
<path d="M64.8022 9.9666C64.1213 9.9666 63.5744 10.1879 63.1292 10.6085L63.1249 10.6126C62.6799 11.0576 62.4564 11.606 62.4564 12.2449C62.4564 12.9265 62.6783 13.4756 63.1249 13.9222C63.5754 14.3728 64.1268 14.5683 64.8022 14.5683C65.4624 14.5683 66.0112 14.3456 66.457 13.8997C66.9028 13.4539 67.1255 12.9052 67.1255 12.2449C67.1255 11.606 66.9021 11.0576 66.4571 10.6126L66.4527 10.6085C66.0083 10.1887 65.4618 9.9666 64.8022 9.9666Z" fill="#0A0A0A" fill-opacity="0.8"/>
<path d="M98.5707 9.9666C97.8897 9.9666 97.3429 10.1879 96.8976 10.6085L96.8933 10.6126C96.4483 11.0576 96.2248 11.606 96.2248 12.2449C96.2248 12.9265 96.4467 13.4756 96.8933 13.9222C97.3438 14.3728 97.8952 14.5683 98.5707 14.5683C99.2309 14.5683 99.7796 14.3456 100.225 13.8997C100.671 13.4539 100.894 12.9052 100.894 12.2449C100.894 11.606 100.671 11.0576 100.226 10.6126L100.221 10.6085C99.7767 10.1887 99.2302 9.9666 98.5707 9.9666Z" fill="#0A0A0A" fill-opacity="0.8"/>
<path fill-rule="evenodd" clip-rule="evenodd" d="M73.4939 15.2316C72.4637 15.2316 71.5452 15.5133 70.7446 16.0549L70.7412 16.0572C69.9461 16.6185 69.3138 17.368 68.8932 18.3484C68.4516 19.3254 68.2455 20.4352 68.2455 21.6724C68.2455 22.8877 68.4518 23.954 68.8948 24.8874C69.3153 25.8209 69.9261 26.528 70.7275 27.0235C71.5318 27.5434 72.4498 27.7758 73.4939 27.7758C75.0765 27.7758 76.3223 27.3392 77.2005 26.4448V26.7124C77.2005 27.7756 76.9993 28.4979 76.6022 28.9348L76.5992 28.9382C76.2015 29.3956 75.5936 29.6316 74.7314 29.6316C74.0069 29.6316 73.4614 29.5213 73.0543 29.2974C72.6603 29.0807 72.4349 28.7572 72.3964 28.3144L72.3799 28.1241H68.61L68.6288 28.3497C68.7456 29.7513 69.3111 30.8255 70.3606 31.5414C71.3779 32.2508 72.7995 32.5683 74.5739 32.5683C76.66 32.5683 78.2664 32.0956 79.3519 31.1078C80.4411 30.1165 80.9697 28.6397 80.9697 26.7124V15.5916H76.9603L77.099 16.5773C76.2297 15.6849 75.0202 15.2316 73.4939 15.2316ZM72.7296 19.2655C73.2304 18.6811 73.8479 18.3933 74.6189 18.3933C75.3657 18.3933 75.9831 18.6799 76.4843 19.2639C76.9655 19.8506 77.223 20.611 77.223 21.5374C77.223 22.4866 76.9655 23.2228 76.4867 23.7857C75.9877 24.3462 75.3705 24.6141 74.6189 24.6141C73.8194 24.6141 73.2063 24.3444 72.7325 23.7676L72.7271 23.7615C72.2295 23.2017 71.9922 22.4684 71.9922 21.5374C71.9922 20.6062 72.2297 19.8486 72.7296 19.2655Z" fill="#0A0A0A" fill-opacity="0.8"/>
<path fill-rule="evenodd" clip-rule="evenodd" d="M87.6698 15.2316C86.6395 15.2316 85.7211 15.5133 84.9205 16.0549L84.9171 16.0572C84.1221 16.6184 83.49 17.3678 83.0694 18.3253C82.6279 19.3017 82.4214 20.389 82.4214 21.6049C82.4214 22.8422 82.6275 23.9519 83.0691 24.9289C83.4888 25.9073 84.1202 26.6801 84.9171 27.2426C85.722 27.8108 86.6429 28.0683 87.6698 28.0683C89.193 28.0683 90.4029 27.6322 91.273 26.7323L91.1352 27.7083H95.1456V15.5916H91.1352L91.2759 16.588C90.3941 15.6894 89.1849 15.2316 87.6698 15.2316ZM86.1681 21.6274C86.1681 20.6983 86.4045 19.9631 86.9043 19.3794C87.4054 18.8163 88.0238 18.5283 88.7948 18.5283C89.5416 18.5283 90.1598 18.815 90.6614 19.3778C91.1426 19.9652 91.3989 20.7031 91.3989 21.6274C91.3989 22.5756 91.1418 23.3138 90.6602 23.9009C90.1589 24.485 89.5416 24.7716 88.7948 24.7716C88.0238 24.7716 87.4063 24.4837 86.9054 23.8994C86.4053 23.3158 86.1681 22.5805 86.1681 21.6274Z" fill="#0A0A0A" fill-opacity="0.8"/>
<path fill-rule="evenodd" clip-rule="evenodd" d="M128.058 15.2316C127.028 15.2316 126.11 15.5133 125.309 16.0549L125.305 16.0572C124.51 16.6184 123.878 17.3678 123.458 18.3253C123.016 19.3017 122.81 20.389 122.81 21.6049C122.81 22.8421 123.016 23.9518 123.457 24.9287C123.877 25.9073 124.509 26.6801 125.305 27.2426C126.11 27.8108 127.031 28.0683 128.058 28.0683C129.583 28.0683 130.793 27.6316 131.663 26.7303L131.527 27.7083H135.534V15.5916H131.527L131.666 16.5899C130.784 15.69 129.574 15.2316 128.058 15.2316ZM126.556 21.6274C126.556 20.6983 126.793 19.9632 127.293 19.3795C127.794 18.8163 128.412 18.5283 129.183 18.5283C129.93 18.5283 130.548 18.815 131.05 19.3778C131.531 19.9651 131.787 20.7031 131.787 21.6274C131.787 22.5757 131.53 23.314 131.048 23.9011C130.547 24.485 129.93 24.7716 129.183 24.7716C128.412 24.7716 127.795 24.4837 127.294 23.8994C126.794 23.3158 126.556 22.5805 126.556 21.6274Z" fill="#0A0A0A" fill-opacity="0.8"/>
<path d="M156.784 15.2316C155.046 15.2316 153.651 15.5972 152.616 16.3028L152.614 16.3046C151.567 17.0417 151.063 18.0506 151.063 19.2874C151.063 20.2211 151.297 20.9751 151.792 21.5201C152.269 22.0451 152.866 22.4026 153.531 22.5928C154.174 22.7765 154.995 22.9356 155.99 23.0713C156.925 23.2048 157.583 23.3593 158.015 23.51C158.214 23.5901 158.346 23.688 158.429 23.7976C158.51 23.9057 158.555 24.04 158.555 24.2149C158.555 24.486 158.406 24.7461 158.076 24.9933C157.768 25.2247 157.325 25.3341 156.739 25.3341C156.048 25.3341 155.509 25.1831 155.103 24.8993C154.704 24.6197 154.494 24.2535 154.494 23.7649V23.5566H150.767L150.77 23.7686C150.794 25.1135 151.341 26.1888 152.409 26.9489C153.447 27.7035 154.868 28.0683 156.649 28.0683C158.361 28.0683 159.736 27.7261 160.75 27.0183C161.771 26.3065 162.302 25.3443 162.302 24.1024C162.302 23.1221 162.045 22.3463 161.55 21.8023L161.547 21.7986C161.052 21.2802 160.458 20.8985 159.788 20.7071L159.786 20.7066C159.125 20.5241 158.283 20.3421 157.284 20.2059L157.277 20.2051C156.381 20.1156 155.732 19.9826 155.335 19.8152L155.326 19.8119C155.141 19.744 155.021 19.6531 154.947 19.5504C154.873 19.4485 154.832 19.319 154.832 19.1524C154.832 18.8134 154.958 18.5379 155.265 18.3075C155.555 18.0947 155.979 17.9658 156.581 17.9658C157.213 17.9658 157.683 18.1325 158.046 18.4129C158.378 18.7084 158.56 19.1034 158.601 19.619L158.616 19.8108H162.321L162.301 19.5842C162.184 18.2503 161.642 17.1827 160.647 16.4011C159.657 15.6232 158.371 15.2316 156.784 15.2316Z" fill="#0A0A0A" fill-opacity="0.8"/>
<path d="M66.6755 15.5916H62.9064V27.7083H66.6755V15.5916Z" fill="#0A0A0A" fill-opacity="0.8"/>
<path d="M100.444 15.5916H96.6748V27.7083H100.444V15.5916Z" fill="#0A0A0A" fill-opacity="0.8"/>
</g>
</svg>
