<svg width="136" height="40" viewBox="0 0 136 40" fill="none" xmlns="http://www.w3.org/2000/svg">
<g opacity="0.84">
<path d="M17.7778 15.5554V6.6665H0V15.5554H17.7778Z" fill="#0A0A0A" fill-opacity="0.8"/>
<path d="M17.7774 24.4442C12.8682 24.4442 8.88853 28.4239 8.88853 33.3331L0.00108599 33.3334L0.00108599 33.104C0.123247 23.4292 7.97363 15.6167 17.663 15.5557L26.6667 15.5561V33.3339H17.7778L17.7774 24.4442Z" fill="#0A0A0A" fill-opacity="0.8"/>
</g>
<g opacity="0.84">
<path d="M35.0017 27.5002V11.0977H39.2317V23.7652H46.6342V27.5002H35.0017Z" fill="#0A0A0A" fill-opacity="0.8"/>
<path d="M53.6359 27.7252C52.2709 27.7252 51.1309 27.4702 50.2159 26.9602C49.3009 26.4352 48.6109 25.7002 48.1459 24.7552C47.6959 23.8102 47.4709 22.7152 47.4709 21.4702V21.2227C47.4709 19.9027 47.7184 18.7927 48.2134 17.8927C48.7084 16.9777 49.3909 16.2802 50.2609 15.8002C51.1459 15.3202 52.1584 15.0802 53.2984 15.0802C54.5734 15.0802 55.6534 15.3202 56.5384 15.8002C57.4384 16.2652 58.1209 16.9252 58.5859 17.7802C59.0509 18.6202 59.2834 19.6102 59.2834 20.7502V22.4152H51.4984V22.9777C51.4984 23.4877 51.6859 23.9077 52.0609 24.2377C52.4359 24.5677 52.9159 24.7327 53.5009 24.7327C54.0259 24.7327 54.4534 24.6277 54.7834 24.4177C55.1134 24.1927 55.3084 23.9002 55.3684 23.5402H59.1484C59.1034 24.3652 58.8409 25.0927 58.3609 25.7227C57.8809 26.3527 57.2359 26.8477 56.4259 27.2077C55.6159 27.5527 54.6859 27.7252 53.6359 27.7252ZM51.4984 19.8952V20.0077H55.3684V19.8952C55.3684 19.2502 55.1884 18.7777 54.8284 18.4777C54.4684 18.1627 54.0034 18.0052 53.4334 18.0052C52.8634 18.0052 52.3984 18.1702 52.0384 18.5002C51.6784 18.8152 51.4984 19.2802 51.4984 19.8952Z" fill="#0A0A0A" fill-opacity="0.8"/>
<path d="M64.8175 27.7252C63.7225 27.7252 62.8301 27.4777 62.1401 26.9827C61.4651 26.4877 60.9701 25.7902 60.6551 24.8902C60.34 23.9752 60.1826 22.9177 60.1826 21.7177V21.1327C60.1826 18.9877 60.6026 17.4502 61.4426 16.5202C62.2826 15.5752 63.4075 15.1027 64.8175 15.1027C65.5826 15.1027 66.2726 15.2677 66.8876 15.5977C67.5176 15.9127 67.9826 16.3777 68.2826 16.9927H68.4626L68.6651 15.3052H72.4226V27.5002H68.4626V25.8352H68.2826C67.9826 26.4352 67.5176 26.9002 66.8876 27.2302C66.2726 27.5602 65.5826 27.7252 64.8175 27.7252ZM66.4375 24.5077C67.0526 24.5077 67.5401 24.3277 67.9001 23.9677C68.2601 23.6077 68.44 23.0827 68.44 22.3927V20.4127C68.44 19.7377 68.2601 19.2202 67.9001 18.8602C67.5401 18.4852 67.0526 18.2977 66.4375 18.2977C65.7925 18.2977 65.2901 18.4852 64.9301 18.8602C64.5851 19.2352 64.4125 19.7527 64.4125 20.4127V22.4377C64.4125 23.0827 64.5851 23.5927 64.9301 23.9677C65.2901 24.3277 65.7925 24.5077 66.4375 24.5077Z" fill="#0A0A0A" fill-opacity="0.8"/>
<path d="M74.7567 31.2577V15.3052H78.5143L78.7393 16.9927H78.9193C79.2193 16.3777 79.6768 15.9127 80.2918 15.5977C80.9218 15.2677 81.6193 15.1027 82.3843 15.1027C83.4943 15.1027 84.3868 15.3502 85.0618 15.8452C85.7368 16.3402 86.2318 17.0452 86.5468 17.9602C86.8618 18.8602 87.0193 19.9177 87.0193 21.1327V21.7177C87.0193 23.8477 86.5993 25.3852 85.7593 26.3302C84.9193 27.2602 83.7943 27.7252 82.3843 27.7252C81.6193 27.7252 80.9218 27.5602 80.2918 27.2302C79.6768 26.9002 79.2193 26.4352 78.9193 25.8352H78.7393V31.2577H74.7567ZM80.7643 24.5077C81.4092 24.5077 81.9043 24.3277 82.2493 23.9677C82.6093 23.5927 82.7892 23.0827 82.7892 22.4377V20.4127C82.7892 19.7527 82.6093 19.2352 82.2493 18.8602C81.9043 18.4852 81.4092 18.2977 80.7643 18.2977C80.1642 18.2977 79.6768 18.4852 79.3018 18.8602C78.9418 19.2202 78.7617 19.7377 78.7617 20.4127V22.3927C78.7617 23.0827 78.9418 23.6077 79.3018 23.9677C79.6768 24.3277 80.1642 24.5077 80.7643 24.5077Z" fill="#0A0A0A" fill-opacity="0.8"/>
<path d="M87.4547 31.2577V28.1527H91.6847V26.1727L86.8922 15.3052H91.0322L93.1922 21.4702L93.5522 22.6402H93.6647L94.0247 21.4702L96.2747 15.3052H100.392L95.6447 26.1727V28.8052C95.6447 29.6302 95.4047 30.2452 94.9247 30.6502C94.4597 31.0552 93.8372 31.2577 93.0572 31.2577H87.4547Z" fill="#0A0A0A" fill-opacity="0.8"/>
<path d="M106.284 27.7252C104.919 27.7252 103.779 27.4702 102.864 26.9602C101.949 26.4352 101.259 25.7002 100.794 24.7552C100.344 23.8102 100.119 22.7152 100.119 21.4702V21.2227C100.119 19.9027 100.367 18.7927 100.862 17.8927C101.357 16.9777 102.039 16.2802 102.909 15.8002C103.794 15.3202 104.807 15.0802 105.947 15.0802C107.222 15.0802 108.302 15.3202 109.187 15.8002C110.087 16.2652 110.769 16.9252 111.234 17.7802C111.699 18.6202 111.932 19.6102 111.932 20.7502V22.4152H104.147V22.9777C104.147 23.4877 104.334 23.9077 104.709 24.2377C105.084 24.5677 105.564 24.7327 106.149 24.7327C106.674 24.7327 107.102 24.6277 107.432 24.4177C107.762 24.1927 107.957 23.9002 108.017 23.5402H111.797C111.752 24.3652 111.489 25.0927 111.009 25.7227C110.529 26.3527 109.884 26.8477 109.074 27.2077C108.264 27.5527 107.334 27.7252 106.284 27.7252ZM104.147 19.8952V20.0077H108.017V19.8952C108.017 19.2502 107.837 18.7777 107.477 18.4777C107.117 18.1627 106.652 18.0052 106.082 18.0052C105.512 18.0052 105.047 18.1702 104.687 18.5002C104.327 18.8152 104.147 19.2802 104.147 19.8952Z" fill="#0A0A0A" fill-opacity="0.8"/>
<path d="M117.466 27.7252C116.371 27.7252 115.478 27.4777 114.788 26.9827C114.113 26.4877 113.618 25.7902 113.303 24.8902C112.988 23.9752 112.831 22.9177 112.831 21.7177V21.1327C112.831 18.9877 113.251 17.4502 114.091 16.5202C114.931 15.5752 116.056 15.1027 117.466 15.1027C118.231 15.1027 118.921 15.2677 119.536 15.5977C120.166 15.9127 120.631 16.3777 120.931 16.9927H121.111L121.313 15.3052H125.071V27.5002H121.111V25.8352H120.931C120.631 26.4352 120.166 26.9002 119.536 27.2302C118.921 27.5602 118.231 27.7252 117.466 27.7252ZM119.086 24.5077C119.701 24.5077 120.188 24.3277 120.548 23.9677C120.908 23.6077 121.088 23.0827 121.088 22.3927V20.4127C121.088 19.7377 120.908 19.2202 120.548 18.8602C120.188 18.4852 119.701 18.2977 119.086 18.2977C118.441 18.2977 117.938 18.4852 117.578 18.8602C117.233 19.2352 117.061 19.7527 117.061 20.4127V22.4377C117.061 23.0827 117.233 23.5927 117.578 23.9677C117.938 24.3277 118.441 24.5077 119.086 24.5077Z" fill="#0A0A0A" fill-opacity="0.8"/>
<path d="M127.405 27.5002V18.2977C127.405 17.3977 127.675 16.6777 128.215 16.1377C128.77 15.5827 129.49 15.3052 130.375 15.3052H135.325V18.5002H131.387V27.5002H127.405Z" fill="#0A0A0A" fill-opacity="0.8"/>
</g>
</svg>
