<svg width="163" height="40" viewBox="0 0 163 40" fill="none" xmlns="http://www.w3.org/2000/svg">
<g opacity="0.84">
<path d="M15.4168 19.1054L29.8041 10.8045L15.4168 2.5L1.02921 10.8045L15.4168 19.1054Z" fill="#0A0A0A" fill-opacity="0.8"/>
<path d="M14.3875 20.8877L0 12.5869V29.1955L14.3875 37.5V20.8877Z" fill="#0A0A0A" fill-opacity="0.8"/>
<path opacity="0.5" d="M16.447 20.8877V37.5L30.8342 29.1955V12.5869L16.447 20.8877Z" fill="#0A0A0A" fill-opacity="0.8"/>
</g>
<g opacity="0.84">
<path d="M51.0708 15.8917V11.48H54.8733V27.5H51.0708V19.3533H44.6358V27.5H40.8333V11.48H44.6358V15.8917H51.0708Z" fill="#0A0A0A" fill-opacity="0.8"/>
<path fill-rule="evenodd" clip-rule="evenodd" d="M68.0699 22.0325V22.73H59.4749C59.5949 23.525 59.8874 24.1325 60.3524 24.5525C60.8174 24.9725 61.4099 25.1825 62.1299 25.1825C63.1356 25.1825 63.8611 24.8439 64.3065 24.1667H67.7156C67.3734 25.2315 66.734 26.0876 65.7974 26.735C64.7774 27.425 63.5549 27.77 62.1299 27.77C60.3299 27.77 58.8749 27.215 57.7649 26.105C56.6549 24.995 56.0999 23.525 56.0999 21.695C56.0999 19.85 56.6474 18.38 57.7424 17.285C58.8224 16.175 60.2699 15.62 62.0849 15.62C63.8849 15.62 65.3399 16.1975 66.4499 17.3525C67.5299 18.5225 68.0699 20.0825 68.0699 22.0325ZM62.0399 18.2075C60.5999 18.2075 59.7524 18.9725 59.4974 20.5025H64.6274C64.5074 19.7825 64.2224 19.22 63.7724 18.815C63.3224 18.41 62.7449 18.2075 62.0399 18.2075Z" fill="#0A0A0A" fill-opacity="0.8"/>
<path d="M75.3623 21.515L79.3673 15.89H75.4748L75.0473 16.4975C74.5523 17.2175 74.0273 18.0275 73.4723 18.9275C73.2473 18.5675 72.7148 17.7575 71.8748 16.4975L71.4473 15.89H67.4423L71.4923 21.56L67.2173 27.5H71.1323L71.4248 27.0725C72.1448 25.9925 72.7973 25.0175 73.3823 24.1475C74.4323 25.7525 75.0773 26.7275 75.3173 27.0725L75.6098 27.5H79.5923L75.3623 21.515Z" fill="#0A0A0A" fill-opacity="0.8"/>
<path fill-rule="evenodd" clip-rule="evenodd" d="M90.3326 27.5H86.98V26.195C86.2 27.245 84.9626 27.77 83.2675 27.77C81.9925 27.77 80.965 27.455 80.185 26.825C79.42 26.195 79.0375 25.325 79.0375 24.215C79.0375 22.055 80.5525 20.8475 83.5825 20.5925L85.405 20.435C86.41 20.33 86.9125 19.9475 86.9125 19.2875C86.9125 18.5075 86.32 18.1175 85.1351 18.1175C84.4151 18.1175 83.905 18.23 83.605 18.455C83.32 18.665 83.1475 19.0625 83.0876 19.6475H79.6C79.81 16.9625 81.6626 15.62 85.1576 15.62C88.6076 15.62 90.3326 16.8125 90.3326 19.1975V27.5ZM84.3251 25.4075C85.12 25.4075 85.75 25.205 86.215 24.8C86.68 24.38 86.9125 23.7575 86.9125 22.9325V22.0775C86.7025 22.3025 86.3126 22.4525 85.7425 22.5275L84.3026 22.685C83.1775 22.805 82.615 23.27 82.615 24.08C82.615 24.485 82.765 24.8075 83.065 25.0475C83.3651 25.2875 83.785 25.4075 84.3251 25.4075Z" fill="#0A0A0A" fill-opacity="0.8"/>
<path d="M101.709 16.745C100.989 15.995 100.014 15.62 98.7839 15.62C97.2989 15.62 96.1139 16.22 95.2289 17.42V11.48H91.7189V27.5H95.2289V21.02C95.2289 20.255 95.4389 19.6625 95.8589 19.2425C96.2789 18.8225 96.8039 18.6125 97.4339 18.6125C98.6789 18.6125 99.3014 19.2725 99.3014 20.5925V27.5H102.811V19.895C102.811 18.53 102.444 17.48 101.709 16.745Z" fill="#0A0A0A" fill-opacity="0.8"/>
<path fill-rule="evenodd" clip-rule="evenodd" d="M115.884 22.0325V22.73H107.289C107.409 23.525 107.702 24.1325 108.167 24.5525C108.632 24.9725 109.224 25.1825 109.944 25.1825C110.95 25.1825 111.675 24.8439 112.121 24.1667H115.53C115.188 25.2315 114.548 26.0876 113.612 26.735C112.592 27.425 111.369 27.77 109.944 27.77C108.144 27.77 106.689 27.215 105.579 26.105C104.469 24.995 103.914 23.525 103.914 21.695C103.914 19.85 104.462 18.38 105.557 17.285C106.637 16.175 108.084 15.62 109.899 15.62C111.699 15.62 113.154 16.1975 114.264 17.3525C115.344 18.5225 115.884 20.0825 115.884 22.0325ZM109.854 18.2075C108.414 18.2075 107.567 18.9725 107.312 20.5025H112.442C112.322 19.7825 112.037 19.22 111.587 18.815C111.137 18.41 110.559 18.2075 109.854 18.2075Z" fill="#0A0A0A" fill-opacity="0.8"/>
<path fill-rule="evenodd" clip-rule="evenodd" d="M125.064 11.48V17.285C124.269 16.175 123.136 15.62 121.666 15.62C120.106 15.62 118.876 16.1675 117.976 17.2625C117.061 18.3575 116.604 19.835 116.604 21.695C116.604 23.555 117.061 25.0325 117.976 26.1275C118.876 27.2225 120.106 27.77 121.666 27.77C123.211 27.77 124.374 27.1775 125.154 25.9925V27.5H128.574V11.48H125.064ZM125.131 21.695C125.131 23.87 124.299 24.9575 122.634 24.9575C120.984 24.9575 120.159 23.9 120.159 21.785C120.159 20.705 120.376 19.88 120.811 19.31C121.246 18.725 121.854 18.4325 122.634 18.4325C124.299 18.4325 125.131 19.52 125.131 21.695Z" fill="#0A0A0A" fill-opacity="0.8"/>
<path d="M136.867 15.71C136.927 15.71 137.182 15.725 137.632 15.755V18.95H136.732C134.677 18.95 133.649 20 133.649 22.1V27.5H130.139V15.89H133.559V18.05C134.099 16.49 135.202 15.71 136.867 15.71Z" fill="#0A0A0A" fill-opacity="0.8"/>
<path fill-rule="evenodd" clip-rule="evenodd" d="M143.796 27.77C145.641 27.77 147.118 27.215 148.228 26.105C149.323 25.01 149.871 23.54 149.871 21.695C149.871 19.835 149.323 18.3575 148.228 17.2625C147.133 16.1675 145.656 15.62 143.796 15.62C141.936 15.62 140.458 16.1675 139.363 17.2625C138.253 18.3725 137.698 19.85 137.698 21.695C137.698 23.525 138.253 24.995 139.363 26.105C140.473 27.215 141.951 27.77 143.796 27.77ZM145.663 24.125C145.228 24.68 144.606 24.9575 143.796 24.9575C142.971 24.9575 142.341 24.68 141.906 24.125C141.471 23.57 141.253 22.76 141.253 21.695C141.253 20.63 141.471 19.82 141.906 19.265C142.341 18.71 142.971 18.4325 143.796 18.4325C144.606 18.4325 145.228 18.71 145.663 19.265C146.098 19.82 146.316 20.63 146.316 21.695C146.316 22.76 146.098 23.57 145.663 24.125Z" fill="#0A0A0A" fill-opacity="0.8"/>
<path d="M158.035 15.62C159.265 15.62 160.24 15.995 160.96 16.745C161.695 17.48 162.063 18.53 162.063 19.895V27.5H158.553V20.5925C158.553 19.2725 157.93 18.6125 156.685 18.6125C156.055 18.6125 155.53 18.8225 155.11 19.2425C154.69 19.6625 154.48 20.255 154.48 21.02V27.5H150.97V15.89H154.39V17.5325C155.29 16.2575 156.505 15.62 158.035 15.62Z" fill="#0A0A0A" fill-opacity="0.8"/>
</g>
</svg>
