<svg width="80" height="80" viewBox="0 0 80 80" fill="none" xmlns="http://www.w3.org/2000/svg">
<path d="M46.1926 17.2646L41.473 16L37.4957 30.8435L33.905 17.4427L29.1852 18.7073L33.0648 33.1859L23.4017 23.5228L19.9466 26.9778L30.5459 37.5772L17.3462 34.0403L16.0815 38.7599L30.5039 42.6244C30.3388 41.9122 30.2514 41.1701 30.2514 40.4077C30.2514 35.0105 34.6266 30.6353 40.0238 30.6353C45.4209 30.6353 49.7961 35.0105 49.7961 40.4077C49.7961 41.1652 49.7098 41.9027 49.5468 42.6107L62.654 46.1228L63.9186 41.4032L49.4389 37.5233L62.6395 33.9862L61.3748 29.2666L46.8957 33.1462L56.5589 23.4831L53.1038 20.0281L42.6515 30.4804L46.1926 17.2646Z" fill="#FF5400"/>
<path d="M49.533 42.6657C49.1283 44.3764 48.274 45.9133 47.1019 47.1446L56.5975 56.6403L60.0525 53.1853L49.533 42.6657Z" fill="#FF5400"/>
<path d="M47.006 47.2439C45.8197 48.4555 44.3205 49.3597 42.6393 49.8257L46.0946 62.7209L50.8142 61.4562L47.006 47.2439Z" fill="#FF5400"/>
<path d="M42.463 49.8729C41.683 50.0734 40.8655 50.1799 40.023 50.1799C39.1203 50.1799 38.2462 50.0575 37.4164 49.8285L33.958 62.7354L38.6776 64L42.463 49.8729Z" fill="#FF5400"/>
<path d="M37.2496 49.7809C35.594 49.2917 34.1215 48.376 32.9594 47.1609L23.4404 56.6799L26.8955 60.135L37.2496 49.7809Z" fill="#FF5400"/>
<path d="M32.881 47.0768C31.7388 45.854 30.9069 44.3376 30.5109 42.6533L17.3608 46.1769L18.6254 50.8965L32.881 47.0768Z" fill="#FF5400"/>
</svg>
