<svg width="108" height="48" viewBox="0 0 108 48" fill="none" xmlns="http://www.w3.org/2000/svg">
<g clip-path="url(#clip0_4_14748)">
<path d="M25.0887 5.05386L21.1557 4L17.8412 16.3696L14.8489 5.20224L10.9158 6.2561L14.1488 18.3216L6.09618 10.269L3.21699 13.1482L12.0497 21.981L1.04995 19.0336L-0.00390625 22.9666L12.0147 26.187C11.8771 25.5935 11.8043 24.9751 11.8043 24.3397C11.8043 19.8421 15.4503 16.1961 19.948 16.1961C24.4456 16.1961 28.0916 19.8421 28.0916 24.3397C28.0916 24.971 28.0197 25.5856 27.8838 26.1756L38.8065 29.1023L39.8603 25.1693L27.7939 21.9361L38.7944 18.9885L37.7405 15.0555L25.6746 18.2885L33.7272 10.2359L30.848 7.35674L22.1378 16.067L25.0887 5.05386Z" fill="#FF5400"/>
<path d="M27.8723 26.2214C27.5351 27.647 26.8232 28.9277 25.8464 29.9538L33.7594 37.8669L36.6386 34.9877L27.8723 26.2214Z" fill="#FF5400"/>
<path d="M25.7665 30.0366C24.7779 31.0463 23.5286 31.7998 22.1276 32.1881L25.007 42.9341L28.94 41.8802L25.7665 30.0366Z" fill="#FF5400"/>
<path d="M21.9807 32.2274C21.3307 32.3945 20.6494 32.4833 19.9473 32.4833C19.1951 32.4833 18.4667 32.3813 17.7752 32.1904L14.8932 42.9462L18.8262 44L21.9807 32.2274Z" fill="#FF5400"/>
<path d="M17.6361 32.1507C16.2565 31.7431 15.0294 30.98 14.061 29.9674L6.1285 37.8999L9.00769 40.7791L17.6361 32.1507Z" fill="#FF5400"/>
<path d="M13.9956 29.8973C13.0438 28.8783 12.3505 27.6147 12.0205 26.2111L1.06214 29.1474L2.11599 33.0804L13.9956 29.8973Z" fill="#FF5400"/>
</g>
<path d="M65.0846 21.564H60.3806C60.1193 20.6307 59.6526 19.9213 58.9806 19.436C58.3273 18.932 57.534 18.68 56.6006 18.68C55.6486 18.68 54.8273 18.9413 54.1366 19.464C53.4646 19.968 52.9513 20.696 52.5966 21.648C52.242 22.5813 52.0646 23.7013 52.0646 25.008C52.0646 26.3147 52.242 27.4347 52.5966 28.368C52.9513 29.3013 53.4646 30.02 54.1366 30.524C54.8086 31.028 55.63 31.28 56.6006 31.28C57.4966 31.28 58.2713 31.0467 58.9246 30.58C59.5966 30.1133 60.0633 29.432 60.3246 28.536H65.0846C64.7486 29.936 64.1793 31.112 63.3766 32.064C62.574 33.016 61.594 33.7347 60.4366 34.22C59.2793 34.7053 58.0193 34.948 56.6566 34.948C54.7526 34.948 53.11 34.5467 51.7286 33.744C50.366 32.9413 49.3113 31.8027 48.5646 30.328C47.8366 28.8347 47.4726 27.0613 47.4726 25.008C47.4726 22.9547 47.846 21.1813 48.5926 19.688C49.3393 18.176 50.4033 17.0187 51.7846 16.216C53.166 15.4133 54.8086 15.012 56.7126 15.012C58.0753 15.012 59.3353 15.2547 60.4926 15.74C61.6686 16.2253 62.658 16.9533 63.4606 17.924C64.282 18.8947 64.8233 20.108 65.0846 21.564ZM79.7641 19.436V34.5H75.4801V19.436H79.7641ZM75.4801 28.088H76.6281C76.5347 29.656 76.2454 30.9533 75.7601 31.98C75.2747 32.988 74.6401 33.7347 73.8561 34.22C73.0907 34.7053 72.2041 34.948 71.1961 34.948C70.2627 34.948 69.4134 34.752 68.6481 34.36C67.9014 33.968 67.3134 33.3707 66.8841 32.568C66.4547 31.7467 66.2401 30.7107 66.2401 29.46V19.436H70.5241V28.592C70.5241 29.2267 70.5987 29.7587 70.7481 30.188C70.9161 30.6173 71.1681 30.944 71.5041 31.168C71.8401 31.3733 72.2601 31.476 72.7641 31.476C73.1747 31.476 73.5481 31.392 73.8841 31.224C74.2201 31.056 74.5001 30.8227 74.7241 30.524C74.9667 30.2067 75.1534 29.8427 75.2841 29.432C75.4147 29.0027 75.4801 28.5547 75.4801 28.088ZM81.5537 34.5V14.34H85.8377V34.5H81.5537ZM87.5977 34.5V19.436H91.8817V34.5H87.5977ZM87.5977 17.924V14.34H91.8817V17.924H87.5977ZM100.39 34.948C98.8778 34.948 97.5618 34.6307 96.4418 33.996C95.3405 33.3427 94.4911 32.4187 93.8938 31.224C93.2965 30.0293 92.9978 28.6107 92.9978 26.968C92.9978 25.2507 93.2965 23.804 93.8938 22.628C94.5098 21.4333 95.3778 20.528 96.4978 19.912C97.6178 19.2773 98.9151 18.96 100.39 18.96C101.92 18.96 103.236 19.2867 104.338 19.94C105.458 20.5747 106.316 21.4893 106.914 22.684C107.511 23.8787 107.81 25.3067 107.81 26.968C107.81 28.6667 107.502 30.1133 106.886 31.308C106.288 32.484 105.43 33.3893 104.31 34.024C103.208 34.64 101.902 34.948 100.39 34.948ZM100.39 31.476C101.379 31.476 102.126 31.0933 102.63 30.328C103.152 29.544 103.414 28.424 103.414 26.968C103.414 25.512 103.152 24.392 102.63 23.608C102.126 22.824 101.379 22.432 100.39 22.432C99.4191 22.432 98.6725 22.824 98.1498 23.608C97.6458 24.3733 97.3938 25.4933 97.3938 26.968C97.3938 28.424 97.6458 29.544 98.1498 30.328C98.6725 31.0933 99.4191 31.476 100.39 31.476Z" fill="#0A0A0A"/>
<defs>
<clipPath id="clip0_4_14748">
<rect width="40" height="48" fill="white"/>
</clipPath>
</defs>
</svg>
