<svg width="1112" height="160" viewBox="0 0 1112 160" fill="none" xmlns="http://www.w3.org/2000/svg">
<mask id="path-1-inside-1_58_3075" fill="white">
<path d="M0 0H273.667V80H0V0Z"/>
</mask>
<path d="M273.667 0H272.667V80H273.667H274.667V0H273.667Z" fill="#DBDBDB" mask="url(#path-1-inside-1_58_3075)"/>
<g opacity="0.84">
<path fill-rule="evenodd" clip-rule="evenodd" d="M74.8955 43.7444L78.7028 47.5518C81.0198 49.8687 84.7763 49.8687 87.0933 47.5518C87.8574 46.7877 88.3695 45.8669 88.6296 44.8929L91.2885 47.5518C93.6054 49.8687 97.362 49.8687 99.6789 47.5518C101.996 45.2348 101.996 41.4783 99.6789 39.1614L91.2885 30.7709C88.9715 28.454 85.215 28.454 82.898 30.7709C82.1339 31.5351 81.6218 32.4558 81.3617 33.4298L78.7028 30.7709C76.3859 28.454 72.6293 28.454 70.3124 30.7709L63.4078 37.6756C60.7529 40.3304 60.7529 44.6347 63.4078 47.2896C66.0626 49.9444 70.367 49.9444 73.0218 47.2896C74.0268 46.2846 74.6514 45.0432 74.8955 43.7444ZM76.6052 32.8685C75.4467 31.7101 73.5685 31.7101 72.41 32.8685C71.252 34.0265 71.2515 35.9037 72.4085 37.0623L80.8004 45.4542C81.9589 46.6127 83.8372 46.6127 84.9957 45.4542C86.1535 44.2963 86.1541 42.4194 84.9975 41.2608L76.6052 32.8685ZM70.9242 39.7732L68.2148 37.0637L65.5054 39.7732C64.009 41.2695 64.009 43.6956 65.5054 45.192C67.0017 46.6883 69.4278 46.6884 70.9242 45.192C72.4206 43.6956 72.4206 41.2695 70.9242 39.7732ZM84.9932 37.0613C83.8372 35.9026 83.838 34.0262 84.9956 32.8685C86.1541 31.7101 88.0324 31.7101 89.1909 32.8685L97.5813 41.259C98.7398 42.4174 98.7398 44.2957 97.5813 45.4542C96.4228 46.6127 94.5446 46.6127 93.3861 45.4542L84.9932 37.0613Z" fill="#0A0A0A" fill-opacity="0.8"/>
</g>
<g opacity="0.84">
<path d="M111.877 47.5H108.083V29.6167H111.877L117.194 41.29L122.535 29.6167H126.377V47.5H122.583V43.7542C122.583 39.8875 122.583 39.0417 122.777 37.7125L118.982 45.8333H115.406L111.636 37.7125C111.853 39.0417 111.877 40.54 111.877 42.4975V47.5Z" fill="#0A0A0A" fill-opacity="0.8"/>
<path d="M133.292 47.8142C130.731 47.8142 129.136 46.3158 129.136 43.9475C129.136 41.7242 130.706 40.3467 133.606 40.1292L136.99 39.8633V39.67C136.99 38.4858 136.265 37.8575 134.936 37.8575C133.365 37.8575 132.519 38.4617 132.519 39.5492H129.426C129.426 36.8183 131.673 35.03 135.129 35.03C138.633 35.03 140.615 36.9875 140.615 40.4433V47.5H137.328L137.086 45.905C136.7 47.0167 135.105 47.8142 133.292 47.8142ZM134.597 45.0592C136.023 45.0592 137.014 44.3583 137.014 42.9808V42.3283L135.129 42.4975C133.51 42.6425 132.93 43.005 132.93 43.7783C132.93 44.6483 133.461 45.0592 134.597 45.0592Z" fill="#0A0A0A" fill-opacity="0.8"/>
<path d="M142.68 41.2408C142.68 37.5675 145.072 35.0058 148.48 35.0058C150.123 35.0058 151.428 35.6342 152.081 36.625L152.274 35.4167H155.778V46.7267C155.778 51.0525 153.289 53.6625 149.157 53.6625C145.459 53.6625 142.97 51.56 142.632 48.1283H146.402C146.474 49.4817 147.489 50.2792 149.132 50.2792C150.921 50.2792 152.057 49.2158 152.057 47.5V45.9292C151.332 46.7992 149.978 47.355 148.407 47.355C145.024 47.355 142.68 44.8658 142.68 41.2408ZM146.426 41.1442C146.426 42.8842 147.586 44.1167 149.229 44.1167C150.921 44.1167 152.057 42.9325 152.057 41.1442C152.057 39.38 150.921 38.2442 149.205 38.2442C147.562 38.2442 146.426 39.4283 146.426 41.1442Z" fill="#0A0A0A" fill-opacity="0.8"/>
<path d="M162.299 47.5H158.577V35.4167H162.081L162.323 36.6733C163.072 35.6342 164.45 35.03 166.02 35.03C168.896 35.03 170.564 36.8667 170.564 40.0325V47.5H166.842V40.9267C166.842 39.4042 165.996 38.4133 164.715 38.4133C163.241 38.4133 162.299 39.38 162.299 40.8783V47.5Z" fill="#0A0A0A" fill-opacity="0.8"/>
<path d="M172.58 41.4342C172.58 37.6158 175.384 35.0542 179.25 35.0542C183.093 35.0542 185.896 37.6158 185.896 41.4342C185.896 45.2525 183.093 47.79 179.25 47.79C175.384 47.79 172.58 45.2525 172.58 41.4342ZM176.326 41.41C176.326 43.2467 177.51 44.455 179.25 44.455C180.966 44.455 182.15 43.2467 182.15 41.41C182.15 39.5975 180.966 38.3892 179.25 38.3892C177.51 38.3892 176.326 39.5975 176.326 41.41Z" fill="#0A0A0A" fill-opacity="0.8"/>
<path d="M191.775 47.5H188.054V29.2783H191.775V47.5Z" fill="#0A0A0A" fill-opacity="0.8"/>
<path d="M196.404 33.5317C195.22 33.5317 194.277 32.5892 194.277 31.405C194.277 30.2208 195.22 29.3025 196.404 29.3025C197.564 29.3025 198.507 30.2208 198.507 31.405C198.507 32.5892 197.564 33.5317 196.404 33.5317ZM194.567 47.5V35.4167H198.289V47.5H194.567Z" fill="#0A0A0A" fill-opacity="0.8"/>
<path d="M204.73 47.8142C202.169 47.8142 200.574 46.3158 200.574 43.9475C200.574 41.7242 202.144 40.3467 205.044 40.1292L208.428 39.8633V39.67C208.428 38.4858 207.703 37.8575 206.374 37.8575C204.803 37.8575 203.957 38.4617 203.957 39.5492H200.864C200.864 36.8183 203.111 35.03 206.567 35.03C210.071 35.03 212.053 36.9875 212.053 40.4433V47.5H208.766L208.524 45.905C208.138 47.0167 206.543 47.8142 204.73 47.8142ZM206.035 45.0592C207.461 45.0592 208.452 44.3583 208.452 42.9808V42.3283L206.567 42.4975C204.948 42.6425 204.368 43.005 204.368 43.7783C204.368 44.6483 204.899 45.0592 206.035 45.0592Z" fill="#0A0A0A" fill-opacity="0.8"/>
</g>
<mask id="path-5-inside-2_58_3075" fill="white">
<path d="M273.667 0H564.667V80H273.667V0Z"/>
</mask>
<path d="M564.667 0H563.667V80H564.667H565.667V0H564.667Z" fill="#DBDBDB" mask="url(#path-5-inside-2_58_3075)"/>
<g opacity="0.84">
<path d="M369.026 35.5554V26.6665H351.248V35.5554H369.026Z" fill="#0A0A0A" fill-opacity="0.8"/>
<path d="M369.026 44.4442C364.117 44.4442 360.137 48.4239 360.137 53.3331L351.249 53.3334L351.249 53.104C351.372 43.4292 359.222 35.6167 368.911 35.5557L377.915 35.5561V53.3339H369.026L369.026 44.4442Z" fill="#0A0A0A" fill-opacity="0.8"/>
</g>
<g opacity="0.84">
<path d="M386.25 47.5002V31.0977H390.48V43.7652H397.883V47.5002H386.25Z" fill="#0A0A0A" fill-opacity="0.8"/>
<path d="M404.884 47.7252C403.519 47.7252 402.379 47.4702 401.464 46.9602C400.549 46.4352 399.859 45.7002 399.394 44.7552C398.944 43.8102 398.719 42.7152 398.719 41.4702V41.2227C398.719 39.9027 398.967 38.7927 399.462 37.8927C399.957 36.9777 400.639 36.2802 401.509 35.8002C402.394 35.3202 403.407 35.0802 404.547 35.0802C405.822 35.0802 406.902 35.3202 407.787 35.8002C408.687 36.2652 409.369 36.9252 409.834 37.7802C410.299 38.6202 410.532 39.6102 410.532 40.7502V42.4152H402.747V42.9777C402.747 43.4877 402.934 43.9077 403.309 44.2377C403.684 44.5677 404.164 44.7327 404.749 44.7327C405.274 44.7327 405.702 44.6277 406.032 44.4177C406.362 44.1927 406.557 43.9002 406.617 43.5402H410.397C410.352 44.3652 410.089 45.0927 409.609 45.7227C409.129 46.3527 408.484 46.8477 407.674 47.2077C406.864 47.5527 405.934 47.7252 404.884 47.7252ZM402.747 39.8952V40.0077H406.617V39.8952C406.617 39.2502 406.437 38.7777 406.077 38.4777C405.717 38.1627 405.252 38.0052 404.682 38.0052C404.112 38.0052 403.647 38.1702 403.287 38.5002C402.927 38.8152 402.747 39.2802 402.747 39.8952Z" fill="#0A0A0A" fill-opacity="0.8"/>
<path d="M416.066 47.7252C414.971 47.7252 414.078 47.4777 413.388 46.9827C412.713 46.4877 412.218 45.7902 411.903 44.8902C411.588 43.9752 411.431 42.9177 411.431 41.7177V41.1327C411.431 38.9877 411.851 37.4502 412.691 36.5202C413.531 35.5752 414.656 35.1027 416.066 35.1027C416.831 35.1027 417.521 35.2677 418.136 35.5977C418.766 35.9127 419.231 36.3777 419.531 36.9927H419.711L419.913 35.3052H423.671V47.5002H419.711V45.8352H419.531C419.231 46.4352 418.766 46.9002 418.136 47.2302C417.521 47.5602 416.831 47.7252 416.066 47.7252ZM417.686 44.5077C418.301 44.5077 418.788 44.3277 419.148 43.9677C419.508 43.6077 419.688 43.0827 419.688 42.3927V40.4127C419.688 39.7377 419.508 39.2202 419.148 38.8602C418.788 38.4852 418.301 38.2977 417.686 38.2977C417.041 38.2977 416.538 38.4852 416.178 38.8602C415.833 39.2352 415.661 39.7527 415.661 40.4127V42.4377C415.661 43.0827 415.833 43.5927 416.178 43.9677C416.538 44.3277 417.041 44.5077 417.686 44.5077Z" fill="#0A0A0A" fill-opacity="0.8"/>
<path d="M426.005 51.2577V35.3052H429.763L429.988 36.9927H430.168C430.468 36.3777 430.925 35.9127 431.54 35.5977C432.17 35.2677 432.868 35.1027 433.633 35.1027C434.743 35.1027 435.635 35.3502 436.31 35.8452C436.985 36.3402 437.48 37.0452 437.795 37.9602C438.11 38.8602 438.268 39.9177 438.268 41.1327V41.7177C438.268 43.8477 437.848 45.3852 437.008 46.3302C436.168 47.2602 435.043 47.7252 433.633 47.7252C432.868 47.7252 432.17 47.5602 431.54 47.2302C430.925 46.9002 430.468 46.4352 430.168 45.8352H429.988V51.2577H426.005ZM432.013 44.5077C432.658 44.5077 433.153 44.3277 433.498 43.9677C433.858 43.5927 434.038 43.0827 434.038 42.4377V40.4127C434.038 39.7527 433.858 39.2352 433.498 38.8602C433.153 38.4852 432.658 38.2977 432.013 38.2977C431.413 38.2977 430.925 38.4852 430.55 38.8602C430.19 39.2202 430.01 39.7377 430.01 40.4127V42.3927C430.01 43.0827 430.19 43.6077 430.55 43.9677C430.925 44.3277 431.413 44.5077 432.013 44.5077Z" fill="#0A0A0A" fill-opacity="0.8"/>
<path d="M438.703 51.2577V48.1527H442.933V46.1727L438.14 35.3052H442.28L444.44 41.4702L444.8 42.6402H444.913L445.273 41.4702L447.523 35.3052H451.64L446.893 46.1727V48.8052C446.893 49.6302 446.653 50.2452 446.173 50.6502C445.708 51.0552 445.085 51.2577 444.305 51.2577H438.703Z" fill="#0A0A0A" fill-opacity="0.8"/>
<path d="M457.532 47.7252C456.167 47.7252 455.027 47.4702 454.112 46.9602C453.197 46.4352 452.507 45.7002 452.042 44.7552C451.592 43.8102 451.367 42.7152 451.367 41.4702V41.2227C451.367 39.9027 451.615 38.7927 452.11 37.8927C452.605 36.9777 453.287 36.2802 454.157 35.8002C455.042 35.3202 456.055 35.0802 457.195 35.0802C458.47 35.0802 459.55 35.3202 460.435 35.8002C461.335 36.2652 462.017 36.9252 462.482 37.7802C462.947 38.6202 463.18 39.6102 463.18 40.7502V42.4152H455.395V42.9777C455.395 43.4877 455.582 43.9077 455.957 44.2377C456.332 44.5677 456.812 44.7327 457.397 44.7327C457.922 44.7327 458.35 44.6277 458.68 44.4177C459.01 44.1927 459.205 43.9002 459.265 43.5402H463.045C463 44.3652 462.737 45.0927 462.257 45.7227C461.777 46.3527 461.132 46.8477 460.322 47.2077C459.512 47.5527 458.582 47.7252 457.532 47.7252ZM455.395 39.8952V40.0077H459.265V39.8952C459.265 39.2502 459.085 38.7777 458.725 38.4777C458.365 38.1627 457.9 38.0052 457.33 38.0052C456.76 38.0052 456.295 38.1702 455.935 38.5002C455.575 38.8152 455.395 39.2802 455.395 39.8952Z" fill="#0A0A0A" fill-opacity="0.8"/>
<path d="M468.714 47.7252C467.619 47.7252 466.727 47.4777 466.037 46.9827C465.362 46.4877 464.867 45.7902 464.552 44.8902C464.237 43.9752 464.079 42.9177 464.079 41.7177V41.1327C464.079 38.9877 464.499 37.4502 465.339 36.5202C466.179 35.5752 467.304 35.1027 468.714 35.1027C469.479 35.1027 470.169 35.2677 470.784 35.5977C471.414 35.9127 471.879 36.3777 472.179 36.9927H472.359L472.562 35.3052H476.319V47.5002H472.359V45.8352H472.179C471.879 46.4352 471.414 46.9002 470.784 47.2302C470.169 47.5602 469.479 47.7252 468.714 47.7252ZM470.334 44.5077C470.949 44.5077 471.437 44.3277 471.797 43.9677C472.157 43.6077 472.337 43.0827 472.337 42.3927V40.4127C472.337 39.7377 472.157 39.2202 471.797 38.8602C471.437 38.4852 470.949 38.2977 470.334 38.2977C469.689 38.2977 469.187 38.4852 468.827 38.8602C468.482 39.2352 468.309 39.7527 468.309 40.4127V42.4377C468.309 43.0827 468.482 43.5927 468.827 43.9677C469.187 44.3277 469.689 44.5077 470.334 44.5077Z" fill="#0A0A0A" fill-opacity="0.8"/>
<path d="M478.653 47.5002V38.2977C478.653 37.3977 478.923 36.6777 479.463 36.1377C480.018 35.5827 480.738 35.3052 481.623 35.3052H486.573V38.5002H482.636V47.5002H478.653Z" fill="#0A0A0A" fill-opacity="0.8"/>
</g>
<mask id="path-9-inside-3_58_3075" fill="white">
<path d="M564.667 0H838.333V80H564.667V0Z"/>
</mask>
<path d="M838.333 0H837.333V80H838.333H839.333V0H838.333Z" fill="#DBDBDB" mask="url(#path-9-inside-3_58_3075)"/>
<path fill-rule="evenodd" clip-rule="evenodd" d="M624.922 25.5205C621.687 25.5205 619.064 28.143 619.064 31.3781V46.0221C619.064 49.2572 621.687 51.8797 624.922 51.8797H639.566C642.801 51.8797 645.423 49.2572 645.423 46.0221V31.3781C645.423 28.143 642.801 25.5205 639.566 25.5205H624.922ZM624.922 29.1815C623.709 29.1815 622.725 30.165 622.725 31.3781V46.0221C622.725 47.2353 623.709 48.2187 624.922 48.2187H630.047C631.26 48.2187 632.244 47.2353 632.244 46.0221V31.3781C632.244 30.165 631.26 29.1815 630.047 29.1815H624.922Z" fill="#0A0A0A" fill-opacity="0.6"/>
<path d="M653.075 48.3645V29.9131H659.902C661.378 29.9131 662.599 30.1591 663.566 30.6511C664.532 31.1432 665.253 31.8197 665.727 32.6808C666.201 33.5419 666.439 34.5084 666.439 35.5803C666.439 36.5995 666.21 37.5397 665.753 38.4008C665.296 39.2442 664.585 39.9296 663.618 40.4568C662.652 40.9664 661.413 41.2212 659.902 41.2212H656.449V48.3645H653.075ZM656.449 38.4798H659.691C660.868 38.4798 661.712 38.225 662.221 37.7154C662.748 37.1882 663.012 36.4765 663.012 35.5803C663.012 34.6665 662.748 33.9548 662.221 33.4452C661.712 32.918 660.868 32.6544 659.691 32.6544H656.449V38.4798Z" fill="#0A0A0A" fill-opacity="0.6"/>
<path d="M673.029 48.6808C671.764 48.6808 670.622 48.3909 669.603 47.811C668.601 47.2311 667.801 46.4315 667.204 45.4123C666.624 44.3755 666.334 43.1806 666.334 41.8274C666.334 40.4743 666.633 39.2882 667.23 38.269C667.828 37.2322 668.627 36.4238 669.629 35.8439C670.648 35.264 671.79 34.9741 673.056 34.9741C674.303 34.9741 675.428 35.264 676.43 35.8439C677.449 36.4238 678.248 37.2322 678.828 38.269C679.426 39.2882 679.724 40.4743 679.724 41.8274C679.724 43.1806 679.426 44.3755 678.828 45.4123C678.248 46.4315 677.449 47.2311 676.43 47.811C675.41 48.3909 674.277 48.6808 673.029 48.6808ZM673.029 45.755C673.908 45.755 674.672 45.4299 675.322 44.7797C675.973 44.1119 676.298 43.1278 676.298 41.8274C676.298 40.5271 675.973 39.5518 675.322 38.9016C674.672 38.2338 673.917 37.8999 673.056 37.8999C672.159 37.8999 671.386 38.2338 670.736 38.9016C670.103 39.5518 669.787 40.5271 669.787 41.8274C669.787 43.1278 670.103 44.1119 670.736 44.7797C671.386 45.4299 672.151 45.755 673.029 45.755Z" fill="#0A0A0A" fill-opacity="0.6"/>
<path d="M683.253 48.3645L679.431 35.2904H682.779L685.045 44.7006L687.681 35.2904H691.424L694.06 44.7006L696.353 35.2904H699.701L695.853 48.3645H692.347L689.553 38.5853L686.759 48.3645H683.253Z" fill="#0A0A0A" fill-opacity="0.6"/>
<path d="M706.137 48.6808C704.819 48.6808 703.651 48.3997 702.632 47.8373C701.612 47.275 700.813 46.4842 700.233 45.465C699.653 44.4458 699.363 43.2684 699.363 41.9329C699.363 40.5798 699.644 39.376 700.207 38.3217C700.786 37.2673 701.577 36.4502 702.579 35.8703C703.598 35.2728 704.793 34.9741 706.164 34.9741C707.446 34.9741 708.58 35.2552 709.564 35.8175C710.548 36.3799 711.312 37.1531 711.857 38.1372C712.419 39.1037 712.701 40.1844 712.701 41.3793C712.701 41.5726 712.692 41.7747 712.674 41.9856C712.674 42.1965 712.665 42.4161 712.648 42.6446H702.711C702.781 43.6638 703.132 44.4634 703.765 45.0433C704.415 45.6232 705.197 45.9131 706.111 45.9131C706.796 45.9131 707.367 45.7638 707.824 45.465C708.299 45.1487 708.65 44.7445 708.879 44.2525H712.305C712.059 45.0784 711.646 45.834 711.066 46.5194C710.504 47.1872 709.801 47.7143 708.958 48.1009C708.132 48.4875 707.192 48.6808 706.137 48.6808ZM706.164 37.7154C705.338 37.7154 704.608 37.9526 703.976 38.4271C703.343 38.884 702.939 39.5869 702.763 40.5358H709.274C709.221 39.6748 708.905 38.9894 708.325 38.4798C707.745 37.9702 707.025 37.7154 706.164 37.7154Z" fill="#0A0A0A" fill-opacity="0.6"/>
<path d="M713.957 48.3645V35.2904H716.962L717.278 37.7418C717.752 36.8983 718.394 36.2305 719.202 35.7385C720.028 35.2289 720.995 34.9741 722.102 34.9741V38.5325H721.153C720.415 38.5325 719.756 38.6468 719.176 38.8752C718.596 39.1037 718.139 39.4991 717.805 40.0614C717.489 40.6237 717.331 41.4057 717.331 42.4074V48.3645H713.957Z" fill="#0A0A0A" fill-opacity="0.6"/>
<path d="M728.23 48.6808C727.07 48.6808 726.051 48.4963 725.172 48.1273C724.293 47.7407 723.591 47.2135 723.063 46.5457C722.536 45.878 722.22 45.1048 722.114 44.2261H725.515C725.62 44.7357 725.901 45.1751 726.358 45.5441C726.833 45.8956 727.439 46.0713 728.177 46.0713C728.915 46.0713 729.451 45.9219 729.785 45.6232C730.136 45.3244 730.312 44.9818 730.312 44.5952C730.312 44.0328 730.066 43.655 729.574 43.4617C729.082 43.2508 728.397 43.0488 727.518 42.8555C726.956 42.7324 726.385 42.5831 725.805 42.4074C725.225 42.2316 724.689 42.012 724.197 41.7484C723.722 41.4672 723.336 41.1157 723.037 40.694C722.738 40.2547 722.589 39.7187 722.589 39.0861C722.589 37.9263 723.046 36.951 723.96 36.1602C724.891 35.3694 726.191 34.9741 727.861 34.9741C729.407 34.9741 730.637 35.3343 731.551 36.0548C732.482 36.7753 733.036 37.7681 733.212 39.0334H730.022C729.829 38.0669 729.1 37.5836 727.834 37.5836C727.202 37.5836 726.71 37.7066 726.358 37.9526C726.024 38.1987 725.857 38.5062 725.857 38.8752C725.857 39.2618 726.112 39.5693 726.622 39.7978C727.131 40.0262 727.808 40.2371 728.651 40.4304C729.565 40.6413 730.4 40.8785 731.156 41.1421C731.929 41.3881 732.544 41.7659 733.001 42.2756C733.458 42.7676 733.686 43.4793 733.686 44.4107C733.704 45.219 733.493 45.9483 733.053 46.5985C732.614 47.2487 731.981 47.7583 731.156 48.1273C730.33 48.4963 729.354 48.6808 728.23 48.6808Z" fill="#0A0A0A" fill-opacity="0.6"/>
<path d="M739.996 48.6808C738.362 48.6808 737.097 48.1712 736.2 47.152C735.322 46.1328 734.882 44.6391 734.882 42.6709V35.2904H738.23V42.3546C738.23 43.4793 738.459 44.3404 738.915 44.9378C739.372 45.5353 740.093 45.834 741.077 45.834C742.008 45.834 742.773 45.5002 743.37 44.8324C743.985 44.1646 744.293 43.2333 744.293 42.0383V35.2904H747.667V48.3645H744.688L744.424 46.1504C744.02 46.9236 743.432 47.5386 742.658 47.9955C741.903 48.4524 741.015 48.6808 739.996 48.6808Z" fill="#0A0A0A" fill-opacity="0.6"/>
<path d="M749.549 48.3645V35.2904H752.553L752.87 37.7418C753.344 36.8983 753.986 36.2305 754.794 35.7385C755.62 35.2289 756.586 34.9741 757.693 34.9741V38.5325H756.745C756.006 38.5325 755.348 38.6468 754.768 38.8752C754.188 39.1037 753.731 39.4991 753.397 40.0614C753.081 40.6237 752.922 41.4057 752.922 42.4074V48.3645H749.549Z" fill="#0A0A0A" fill-opacity="0.6"/>
<path d="M763.644 44.4634C763.012 44.4634 762.423 44.3931 761.878 44.2525L760.903 45.2278C761.202 45.3859 761.606 45.5177 762.116 45.6232C762.625 45.7286 763.451 45.834 764.593 45.9395C766.333 46.0976 767.598 46.5106 768.389 47.1784C769.18 47.8461 769.575 48.7687 769.575 49.9461C769.575 50.7193 769.364 51.4486 768.943 52.1339C768.521 52.8368 767.871 53.3991 766.992 53.8209C766.113 54.2602 764.989 54.4799 763.618 54.4799C761.755 54.4799 760.253 54.1284 759.111 53.4255C757.968 52.7402 757.397 51.7034 757.397 50.3151C757.397 49.1377 757.968 48.1185 759.111 47.2574C758.759 47.0993 758.452 46.9323 758.188 46.7566C757.942 46.5809 757.722 46.3964 757.529 46.2031V45.5968L759.822 43.1718C758.803 42.2756 758.294 41.1245 758.294 39.7187C758.294 38.8401 758.504 38.0405 758.926 37.32C759.365 36.5995 759.98 36.0284 760.771 35.6067C761.562 35.1849 762.52 34.9741 763.644 34.9741C764.382 34.9741 765.068 35.0795 765.7 35.2904H770.656V37.3464L768.415 37.5045C768.767 38.1723 768.943 38.9104 768.943 39.7187C768.943 40.5974 768.732 41.3969 768.31 42.1174C767.888 42.8379 767.273 43.409 766.465 43.8307C765.674 44.2525 764.734 44.4634 763.644 44.4634ZM763.644 41.8802C764.33 41.8802 764.892 41.6957 765.331 41.3266C765.788 40.9576 766.017 40.4304 766.017 39.7451C766.017 39.0597 765.788 38.5325 765.331 38.1635C764.892 37.7945 764.33 37.61 763.644 37.61C762.924 37.61 762.344 37.7945 761.905 38.1635C761.465 38.5325 761.246 39.0597 761.246 39.7451C761.246 40.4304 761.465 40.9576 761.905 41.3266C762.344 41.6957 762.924 41.8802 763.644 41.8802ZM760.481 49.9724C760.481 50.6226 760.78 51.1059 761.378 51.4222C761.993 51.7561 762.739 51.923 763.618 51.923C764.462 51.923 765.147 51.7473 765.674 51.3958C766.201 51.062 766.465 50.6051 766.465 50.0252C766.465 49.5507 766.289 49.1553 765.938 48.839C765.604 48.5227 764.927 48.3294 763.908 48.2591C763.188 48.2064 762.52 48.1273 761.905 48.0219C761.395 48.303 761.026 48.6105 760.798 48.9444C760.587 49.2783 760.481 49.621 760.481 49.9724Z" fill="#0A0A0A" fill-opacity="0.6"/>
<path d="M777.372 48.6808C776.054 48.6808 774.886 48.3997 773.866 47.8373C772.847 47.275 772.048 46.4842 771.468 45.465C770.888 44.4458 770.598 43.2684 770.598 41.9329C770.598 40.5798 770.879 39.376 771.441 38.3217C772.021 37.2673 772.812 36.4502 773.814 35.8703C774.833 35.2728 776.028 34.9741 777.399 34.9741C778.681 34.9741 779.815 35.2552 780.799 35.8175C781.783 36.3799 782.547 37.1531 783.092 38.1372C783.654 39.1037 783.936 40.1844 783.936 41.3793C783.936 41.5726 783.927 41.7747 783.909 41.9856C783.909 42.1965 783.9 42.4161 783.883 42.6446H773.946C774.016 43.6638 774.367 44.4634 775 45.0433C775.65 45.6232 776.432 45.9131 777.346 45.9131C778.031 45.9131 778.602 45.7638 779.059 45.465C779.534 45.1487 779.885 44.7445 780.114 44.2525H783.54C783.294 45.0784 782.881 45.834 782.301 46.5194C781.739 47.1872 781.036 47.7143 780.193 48.1009C779.367 48.4875 778.427 48.6808 777.372 48.6808ZM777.399 37.7154C776.573 37.7154 775.843 37.9526 775.211 38.4271C774.578 38.884 774.174 39.5869 773.998 40.5358H780.509C780.456 39.6748 780.14 38.9894 779.56 38.4798C778.98 37.9702 778.26 37.7154 777.399 37.7154Z" fill="#0A0A0A" fill-opacity="0.6"/>
<g opacity="0.84">
<path d="M909.334 39.1054L923.721 30.8045L909.334 22.5L894.946 30.8045L909.334 39.1054Z" fill="#0A0A0A" fill-opacity="0.8"/>
<path d="M908.304 40.8877L893.917 32.5869V49.1955L908.304 57.5V40.8877Z" fill="#0A0A0A" fill-opacity="0.8"/>
<path opacity="0.5" d="M910.364 40.8877V57.5L924.751 49.1955V32.5869L910.364 40.8877Z" fill="#0A0A0A" fill-opacity="0.8"/>
</g>
<g opacity="0.84">
<path d="M944.987 35.8917V31.48H948.79V47.5H944.987V39.3533H938.553V47.5H934.75V31.48H938.553V35.8917H944.987Z" fill="#0A0A0A" fill-opacity="0.8"/>
<path fill-rule="evenodd" clip-rule="evenodd" d="M961.987 42.0325V42.73H953.392C953.512 43.525 953.804 44.1325 954.269 44.5525C954.734 44.9725 955.327 45.1825 956.047 45.1825C957.052 45.1825 957.778 44.8439 958.223 44.1667H961.632C961.29 45.2315 960.651 46.0876 959.714 46.735C958.694 47.425 957.472 47.77 956.047 47.77C954.247 47.77 952.792 47.215 951.682 46.105C950.572 44.995 950.017 43.525 950.017 41.695C950.017 39.85 950.564 38.38 951.659 37.285C952.739 36.175 954.187 35.62 956.002 35.62C957.802 35.62 959.257 36.1975 960.367 37.3525C961.447 38.5225 961.987 40.0825 961.987 42.0325ZM955.957 38.2075C954.517 38.2075 953.669 38.9725 953.414 40.5025H958.544C958.424 39.7825 958.139 39.22 957.689 38.815C957.239 38.41 956.662 38.2075 955.957 38.2075Z" fill="#0A0A0A" fill-opacity="0.8"/>
<path d="M969.279 41.515L973.284 35.89H969.392L968.964 36.4975C968.469 37.2175 967.944 38.0275 967.389 38.9275C967.164 38.5675 966.632 37.7575 965.792 36.4975L965.364 35.89H961.359L965.409 41.56L961.134 47.5H965.049L965.342 47.0725C966.062 45.9925 966.714 45.0175 967.299 44.1475C968.349 45.7525 968.994 46.7275 969.234 47.0725L969.527 47.5H973.509L969.279 41.515Z" fill="#0A0A0A" fill-opacity="0.8"/>
<path fill-rule="evenodd" clip-rule="evenodd" d="M984.249 47.5H980.897V46.195C980.117 47.245 978.879 47.77 977.184 47.77C975.909 47.77 974.882 47.455 974.102 46.825C973.337 46.195 972.954 45.325 972.954 44.215C972.954 42.055 974.469 40.8475 977.499 40.5925L979.322 40.435C980.327 40.33 980.829 39.9475 980.829 39.2875C980.829 38.5075 980.237 38.1175 979.052 38.1175C978.332 38.1175 977.822 38.23 977.522 38.455C977.237 38.665 977.064 39.0625 977.004 39.6475H973.517C973.727 36.9625 975.579 35.62 979.074 35.62C982.524 35.62 984.249 36.8125 984.249 39.1975V47.5ZM978.242 45.4075C979.037 45.4075 979.667 45.205 980.132 44.8C980.597 44.38 980.829 43.7575 980.829 42.9325V42.0775C980.619 42.3025 980.229 42.4525 979.659 42.5275L978.219 42.685C977.094 42.805 976.532 43.27 976.532 44.08C976.532 44.485 976.682 44.8075 976.982 45.0475C977.282 45.2875 977.702 45.4075 978.242 45.4075Z" fill="#0A0A0A" fill-opacity="0.8"/>
<path d="M995.626 36.745C994.906 35.995 993.931 35.62 992.701 35.62C991.216 35.62 990.031 36.22 989.146 37.42V31.48H985.636V47.5H989.146V41.02C989.146 40.255 989.356 39.6625 989.776 39.2425C990.196 38.8225 990.721 38.6125 991.351 38.6125C992.596 38.6125 993.218 39.2725 993.218 40.5925V47.5H996.728V39.895C996.728 38.53 996.361 37.48 995.626 36.745Z" fill="#0A0A0A" fill-opacity="0.8"/>
<path fill-rule="evenodd" clip-rule="evenodd" d="M1009.8 42.0325V42.73H1001.21C1001.33 43.525 1001.62 44.1325 1002.08 44.5525C1002.55 44.9725 1003.14 45.1825 1003.86 45.1825C1004.87 45.1825 1005.59 44.8439 1006.04 44.1667H1009.45C1009.1 45.2315 1008.46 46.0876 1007.53 46.735C1006.51 47.425 1005.29 47.77 1003.86 47.77C1002.06 47.77 1000.61 47.215 999.496 46.105C998.386 44.995 997.831 43.525 997.831 41.695C997.831 39.85 998.378 38.38 999.473 37.285C1000.55 36.175 1002 35.62 1003.82 35.62C1005.62 35.62 1007.07 36.1975 1008.18 37.3525C1009.26 38.5225 1009.8 40.0825 1009.8 42.0325ZM1003.77 38.2075C1002.33 38.2075 1001.48 38.9725 1001.23 40.5025H1006.36C1006.24 39.7825 1005.95 39.22 1005.5 38.815C1005.05 38.41 1004.48 38.2075 1003.77 38.2075Z" fill="#0A0A0A" fill-opacity="0.8"/>
<path fill-rule="evenodd" clip-rule="evenodd" d="M1018.98 31.48V37.285C1018.19 36.175 1017.05 35.62 1015.58 35.62C1014.02 35.62 1012.79 36.1675 1011.89 37.2625C1010.98 38.3575 1010.52 39.835 1010.52 41.695C1010.52 43.555 1010.98 45.0325 1011.89 46.1275C1012.79 47.2225 1014.02 47.77 1015.58 47.77C1017.13 47.77 1018.29 47.1775 1019.07 45.9925V47.5H1022.49V31.48H1018.98ZM1019.05 41.695C1019.05 43.87 1018.22 44.9575 1016.55 44.9575C1014.9 44.9575 1014.08 43.9 1014.08 41.785C1014.08 40.705 1014.29 39.88 1014.73 39.31C1015.16 38.725 1015.77 38.4325 1016.55 38.4325C1018.22 38.4325 1019.05 39.52 1019.05 41.695Z" fill="#0A0A0A" fill-opacity="0.8"/>
<path d="M1030.78 35.71C1030.84 35.71 1031.1 35.725 1031.55 35.755V38.95H1030.65C1028.59 38.95 1027.57 40 1027.57 42.1V47.5H1024.06V35.89H1027.48V38.05C1028.02 36.49 1029.12 35.71 1030.78 35.71Z" fill="#0A0A0A" fill-opacity="0.8"/>
<path fill-rule="evenodd" clip-rule="evenodd" d="M1037.71 47.77C1039.56 47.77 1041.04 47.215 1042.15 46.105C1043.24 45.01 1043.79 43.54 1043.79 41.695C1043.79 39.835 1043.24 38.3575 1042.15 37.2625C1041.05 36.1675 1039.57 35.62 1037.71 35.62C1035.85 35.62 1034.38 36.1675 1033.28 37.2625C1032.17 38.3725 1031.62 39.85 1031.62 41.695C1031.62 43.525 1032.17 44.995 1033.28 46.105C1034.39 47.215 1035.87 47.77 1037.71 47.77ZM1039.58 44.125C1039.15 44.68 1038.52 44.9575 1037.71 44.9575C1036.89 44.9575 1036.26 44.68 1035.82 44.125C1035.39 43.57 1035.17 42.76 1035.17 41.695C1035.17 40.63 1035.39 39.82 1035.82 39.265C1036.26 38.71 1036.89 38.4325 1037.71 38.4325C1038.52 38.4325 1039.15 38.71 1039.58 39.265C1040.02 39.82 1040.23 40.63 1040.23 41.695C1040.23 42.76 1040.02 43.57 1039.58 44.125Z" fill="#0A0A0A" fill-opacity="0.8"/>
<path d="M1051.95 35.62C1053.18 35.62 1054.16 35.995 1054.88 36.745C1055.61 37.48 1055.98 38.53 1055.98 39.895V47.5H1052.47V40.5925C1052.47 39.2725 1051.85 38.6125 1050.6 38.6125C1049.97 38.6125 1049.45 38.8225 1049.03 39.2425C1048.61 39.6625 1048.4 40.255 1048.4 41.02V47.5H1044.89V35.89H1048.31V37.5325C1049.21 36.2575 1050.42 35.62 1051.95 35.62Z" fill="#0A0A0A" fill-opacity="0.8"/>
</g>
<mask id="path-16-inside-4_58_3075" fill="white">
<path d="M0 80H1112V160H0V80Z"/>
</mask>
<path d="M0 80V81H1112V80V79H0V80Z" fill="#DBDBDB" mask="url(#path-16-inside-4_58_3075)"/>
<mask id="path-18-inside-5_58_3075" fill="white">
<path d="M0 80H273.667V160H0V80Z"/>
</mask>
<path d="M273.667 80H272.667V160H273.667H274.667V80H273.667Z" fill="#DBDBDB" mask="url(#path-18-inside-5_58_3075)"/>
<path fill-rule="evenodd" clip-rule="evenodd" d="M60.2551 105.521C57.0201 105.521 54.3976 108.143 54.3976 111.378V126.022C54.3976 129.257 57.0201 131.88 60.2551 131.88H74.899C78.134 131.88 80.7565 129.257 80.7565 126.022V111.378C80.7565 108.143 78.134 105.521 74.899 105.521H60.2551ZM60.2551 109.182C59.042 109.182 58.0585 110.165 58.0585 111.378V126.022C58.0585 127.235 59.042 128.219 60.2551 128.219H65.3805C66.5936 128.219 67.577 127.235 67.577 126.022V111.378C67.577 110.165 66.5936 109.182 65.3805 109.182H60.2551Z" fill="#0A0A0A" fill-opacity="0.6"/>
<path d="M88.408 128.365V109.913H95.2349C96.711 109.913 97.9323 110.159 98.8988 110.651C99.8653 111.143 100.586 111.82 101.06 112.681C101.535 113.542 101.772 114.508 101.772 115.58C101.772 116.6 101.543 117.54 101.087 118.401C100.63 119.244 99.918 119.93 98.9515 120.457C97.985 120.966 96.7462 121.221 95.2349 121.221H91.7819V128.365H88.408ZM91.7819 118.48H95.024C96.2014 118.48 97.0449 118.225 97.5545 117.715C98.0817 117.188 98.3453 116.477 98.3453 115.58C98.3453 114.667 98.0817 113.955 97.5545 113.445C97.0449 112.918 96.2014 112.654 95.024 112.654H91.7819V118.48Z" fill="#0A0A0A" fill-opacity="0.6"/>
<path d="M108.362 128.681C107.097 128.681 105.955 128.391 104.936 127.811C103.934 127.231 103.135 126.432 102.537 125.412C101.957 124.376 101.667 123.181 101.667 121.827C101.667 120.474 101.966 119.288 102.564 118.269C103.161 117.232 103.961 116.424 104.962 115.844C105.981 115.264 107.124 114.974 108.389 114.974C109.636 114.974 110.761 115.264 111.763 115.844C112.782 116.424 113.582 117.232 114.161 118.269C114.759 119.288 115.058 120.474 115.058 121.827C115.058 123.181 114.759 124.376 114.161 125.412C113.582 126.432 112.782 127.231 111.763 127.811C110.744 128.391 109.61 128.681 108.362 128.681ZM108.362 125.755C109.241 125.755 110.006 125.43 110.656 124.78C111.306 124.112 111.631 123.128 111.631 121.827C111.631 120.527 111.306 119.552 110.656 118.902C110.006 118.234 109.25 117.9 108.389 117.9C107.493 117.9 106.719 118.234 106.069 118.902C105.437 119.552 105.12 120.527 105.12 121.827C105.12 123.128 105.437 124.112 106.069 124.78C106.719 125.43 107.484 125.755 108.362 125.755Z" fill="#0A0A0A" fill-opacity="0.6"/>
<path d="M118.586 128.365L114.764 115.29H118.112L120.379 124.701L123.015 115.29H126.758L129.393 124.701L131.687 115.29H135.034L131.186 128.365H127.68L124.886 118.585L122.092 128.365H118.586Z" fill="#0A0A0A" fill-opacity="0.6"/>
<path d="M141.471 128.681C140.153 128.681 138.984 128.4 137.965 127.837C136.946 127.275 136.146 126.484 135.566 125.465C134.986 124.446 134.696 123.268 134.696 121.933C134.696 120.58 134.977 119.376 135.54 118.322C136.12 117.267 136.91 116.45 137.912 115.87C138.931 115.273 140.126 114.974 141.497 114.974C142.78 114.974 143.913 115.255 144.897 115.818C145.881 116.38 146.646 117.153 147.19 118.137C147.753 119.104 148.034 120.184 148.034 121.379C148.034 121.573 148.025 121.775 148.008 121.986C148.008 122.196 147.999 122.416 147.981 122.645H138.044C138.114 123.664 138.466 124.463 139.098 125.043C139.748 125.623 140.53 125.913 141.444 125.913C142.129 125.913 142.701 125.764 143.157 125.465C143.632 125.149 143.983 124.745 144.212 124.252H147.639C147.392 125.078 146.98 125.834 146.4 126.519C145.837 127.187 145.134 127.714 144.291 128.101C143.465 128.488 142.525 128.681 141.471 128.681ZM141.497 117.715C140.671 117.715 139.942 117.953 139.309 118.427C138.676 118.884 138.272 119.587 138.097 120.536H144.607C144.555 119.675 144.238 118.989 143.658 118.48C143.078 117.97 142.358 117.715 141.497 117.715Z" fill="#0A0A0A" fill-opacity="0.6"/>
<path d="M149.29 128.365V115.29H152.295L152.611 117.742C153.086 116.898 153.727 116.231 154.535 115.738C155.361 115.229 156.328 114.974 157.435 114.974V118.533H156.486C155.748 118.533 155.089 118.647 154.509 118.875C153.929 119.104 153.472 119.499 153.138 120.061C152.822 120.624 152.664 121.406 152.664 122.407V128.365H149.29Z" fill="#0A0A0A" fill-opacity="0.6"/>
<path d="M163.563 128.681C162.403 128.681 161.384 128.496 160.505 128.127C159.627 127.741 158.924 127.214 158.397 126.546C157.869 125.878 157.553 125.105 157.448 124.226H160.848C160.953 124.736 161.235 125.175 161.692 125.544C162.166 125.896 162.772 126.071 163.51 126.071C164.248 126.071 164.784 125.922 165.118 125.623C165.47 125.324 165.645 124.982 165.645 124.595C165.645 124.033 165.399 123.655 164.907 123.462C164.415 123.251 163.73 123.049 162.851 122.855C162.289 122.732 161.718 122.583 161.138 122.407C160.558 122.232 160.022 122.012 159.53 121.748C159.056 121.467 158.669 121.116 158.37 120.694C158.072 120.255 157.922 119.719 157.922 119.086C157.922 117.926 158.379 116.951 159.293 116.16C160.224 115.369 161.525 114.974 163.194 114.974C164.74 114.974 165.97 115.334 166.884 116.055C167.816 116.775 168.369 117.768 168.545 119.033H165.355C165.162 118.067 164.433 117.584 163.168 117.584C162.535 117.584 162.043 117.707 161.692 117.953C161.358 118.199 161.191 118.506 161.191 118.875C161.191 119.262 161.445 119.569 161.955 119.798C162.465 120.026 163.141 120.237 163.985 120.43C164.899 120.641 165.733 120.879 166.489 121.142C167.262 121.388 167.877 121.766 168.334 122.276C168.791 122.768 169.019 123.479 169.019 124.411C169.037 125.219 168.826 125.948 168.387 126.598C167.947 127.249 167.315 127.758 166.489 128.127C165.663 128.496 164.688 128.681 163.563 128.681Z" fill="#0A0A0A" fill-opacity="0.6"/>
<path d="M175.329 128.681C173.695 128.681 172.43 128.171 171.534 127.152C170.655 126.133 170.216 124.639 170.216 122.671V115.29H173.563V122.355C173.563 123.479 173.792 124.34 174.249 124.938C174.706 125.535 175.426 125.834 176.41 125.834C177.341 125.834 178.106 125.5 178.703 124.832C179.318 124.165 179.626 123.233 179.626 122.038V115.29H183V128.365H180.021L179.758 126.15C179.353 126.924 178.765 127.539 177.992 127.996C177.236 128.452 176.349 128.681 175.329 128.681Z" fill="#0A0A0A" fill-opacity="0.6"/>
<path d="M184.882 128.365V115.29H187.887L188.203 117.742C188.677 116.898 189.319 116.231 190.127 115.738C190.953 115.229 191.92 114.974 193.027 114.974V118.533H192.078C191.34 118.533 190.681 118.647 190.101 118.875C189.521 119.104 189.064 119.499 188.73 120.061C188.414 120.624 188.256 121.406 188.256 122.407V128.365H184.882Z" fill="#0A0A0A" fill-opacity="0.6"/>
<path d="M198.978 124.463C198.345 124.463 197.756 124.393 197.212 124.252L196.236 125.228C196.535 125.386 196.939 125.518 197.449 125.623C197.958 125.729 198.784 125.834 199.927 125.939C201.666 126.098 202.931 126.511 203.722 127.178C204.513 127.846 204.908 128.769 204.908 129.946C204.908 130.719 204.698 131.449 204.276 132.134C203.854 132.837 203.204 133.399 202.325 133.821C201.447 134.26 200.322 134.48 198.951 134.48C197.089 134.48 195.586 134.128 194.444 133.425C193.302 132.74 192.731 131.703 192.731 130.315C192.731 129.138 193.302 128.119 194.444 127.257C194.092 127.099 193.785 126.932 193.521 126.757C193.275 126.581 193.056 126.396 192.862 126.203V125.597L195.156 123.172C194.136 122.276 193.627 121.125 193.627 119.719C193.627 118.84 193.838 118.041 194.259 117.32C194.699 116.6 195.314 116.028 196.105 115.607C196.895 115.185 197.853 114.974 198.978 114.974C199.716 114.974 200.401 115.079 201.034 115.29H205.989V117.346L203.749 117.505C204.1 118.172 204.276 118.91 204.276 119.719C204.276 120.597 204.065 121.397 203.643 122.117C203.221 122.838 202.606 123.409 201.798 123.831C201.007 124.252 200.067 124.463 198.978 124.463ZM198.978 121.88C199.663 121.88 200.225 121.696 200.665 121.327C201.121 120.958 201.35 120.43 201.35 119.745C201.35 119.06 201.121 118.533 200.665 118.164C200.225 117.794 199.663 117.61 198.978 117.61C198.257 117.61 197.677 117.794 197.238 118.164C196.799 118.533 196.579 119.06 196.579 119.745C196.579 120.43 196.799 120.958 197.238 121.327C197.677 121.696 198.257 121.88 198.978 121.88ZM195.815 129.972C195.815 130.623 196.113 131.106 196.711 131.422C197.326 131.756 198.073 131.923 198.951 131.923C199.795 131.923 200.48 131.747 201.007 131.396C201.534 131.062 201.798 130.605 201.798 130.025C201.798 129.551 201.622 129.155 201.271 128.839C200.937 128.523 200.26 128.329 199.241 128.259C198.521 128.206 197.853 128.127 197.238 128.022C196.728 128.303 196.359 128.611 196.131 128.944C195.92 129.278 195.815 129.621 195.815 129.972Z" fill="#0A0A0A" fill-opacity="0.6"/>
<path d="M212.705 128.681C211.388 128.681 210.219 128.4 209.2 127.837C208.181 127.275 207.381 126.484 206.801 125.465C206.221 124.446 205.931 123.268 205.931 121.933C205.931 120.58 206.212 119.376 206.775 118.322C207.355 117.267 208.145 116.45 209.147 115.87C210.166 115.273 211.361 114.974 212.732 114.974C214.015 114.974 215.148 115.255 216.132 115.818C217.116 116.38 217.881 117.153 218.425 118.137C218.988 119.104 219.269 120.184 219.269 121.379C219.269 121.573 219.26 121.775 219.242 121.986C219.242 122.196 219.234 122.416 219.216 122.645H209.279C209.349 123.664 209.701 124.463 210.333 125.043C210.983 125.623 211.765 125.913 212.679 125.913C213.364 125.913 213.936 125.764 214.392 125.465C214.867 125.149 215.218 124.745 215.447 124.252H218.873C218.627 125.078 218.215 125.834 217.635 126.519C217.072 127.187 216.369 127.714 215.526 128.101C214.7 128.488 213.76 128.681 212.705 128.681ZM212.732 117.715C211.906 117.715 211.177 117.953 210.544 118.427C209.911 118.884 209.507 119.587 209.332 120.536H215.842C215.789 119.675 215.473 118.989 214.893 118.48C214.313 117.97 213.593 117.715 212.732 117.715Z" fill="#0A0A0A" fill-opacity="0.6"/>
<mask id="path-22-inside-6_58_3075" fill="white">
<path d="M273.667 80H564.667V160H273.667V80Z"/>
</mask>
<path d="M564.667 80H563.667V160H564.667H565.667V80H564.667Z" fill="#DBDBDB" mask="url(#path-22-inside-6_58_3075)"/>
<g opacity="0.84">
<path d="M353.334 119.105L367.721 110.805L353.334 102.5L338.946 110.805L353.334 119.105Z" fill="#0A0A0A" fill-opacity="0.8"/>
<path d="M352.304 120.888L337.917 112.587V129.195L352.304 137.5V120.888Z" fill="#0A0A0A" fill-opacity="0.8"/>
<path opacity="0.5" d="M354.364 120.888V137.5L368.751 129.196V112.587L354.364 120.888Z" fill="#0A0A0A" fill-opacity="0.8"/>
</g>
<g opacity="0.84">
<path d="M388.987 115.892V111.48H392.79V127.5H388.987V119.353H382.553V127.5H378.75V111.48H382.553V115.892H388.987Z" fill="#0A0A0A" fill-opacity="0.8"/>
<path fill-rule="evenodd" clip-rule="evenodd" d="M405.987 122.032V122.73H397.392C397.512 123.525 397.804 124.132 398.269 124.552C398.734 124.972 399.327 125.182 400.047 125.182C401.052 125.182 401.778 124.844 402.223 124.167H405.632C405.29 125.232 404.651 126.088 403.714 126.735C402.694 127.425 401.472 127.77 400.047 127.77C398.247 127.77 396.792 127.215 395.682 126.105C394.572 124.995 394.017 123.525 394.017 121.695C394.017 119.85 394.564 118.38 395.659 117.285C396.739 116.175 398.187 115.62 400.002 115.62C401.802 115.62 403.257 116.197 404.367 117.352C405.447 118.522 405.987 120.082 405.987 122.032ZM399.957 118.207C398.517 118.207 397.669 118.972 397.414 120.502H402.544C402.424 119.782 402.139 119.22 401.689 118.815C401.239 118.41 400.662 118.207 399.957 118.207Z" fill="#0A0A0A" fill-opacity="0.8"/>
<path d="M413.279 121.515L417.284 115.89H413.392L412.964 116.497C412.469 117.217 411.944 118.027 411.389 118.927C411.164 118.567 410.632 117.757 409.792 116.497L409.364 115.89H405.359L409.409 121.56L405.134 127.5H409.049L409.342 127.072C410.062 125.992 410.714 125.017 411.299 124.147C412.349 125.752 412.994 126.727 413.234 127.072L413.527 127.5H417.509L413.279 121.515Z" fill="#0A0A0A" fill-opacity="0.8"/>
<path fill-rule="evenodd" clip-rule="evenodd" d="M428.249 127.5H424.897V126.195C424.117 127.245 422.879 127.77 421.184 127.77C419.909 127.77 418.882 127.455 418.102 126.825C417.337 126.195 416.954 125.325 416.954 124.215C416.954 122.055 418.469 120.847 421.499 120.592L423.322 120.435C424.327 120.33 424.829 119.947 424.829 119.287C424.829 118.507 424.237 118.117 423.052 118.117C422.332 118.117 421.822 118.23 421.522 118.455C421.237 118.665 421.064 119.062 421.004 119.647H417.517C417.727 116.962 419.579 115.62 423.074 115.62C426.524 115.62 428.249 116.812 428.249 119.197V127.5ZM422.242 125.407C423.037 125.407 423.667 125.205 424.132 124.8C424.597 124.38 424.829 123.757 424.829 122.932V122.077C424.619 122.302 424.229 122.452 423.659 122.527L422.219 122.685C421.094 122.805 420.532 123.27 420.532 124.08C420.532 124.485 420.682 124.807 420.982 125.047C421.282 125.287 421.702 125.407 422.242 125.407Z" fill="#0A0A0A" fill-opacity="0.8"/>
<path d="M439.626 116.745C438.906 115.995 437.931 115.62 436.701 115.62C435.216 115.62 434.031 116.22 433.146 117.42V111.48H429.636V127.5H433.146V121.02C433.146 120.255 433.356 119.662 433.776 119.242C434.196 118.822 434.721 118.612 435.351 118.612C436.596 118.612 437.218 119.272 437.218 120.592V127.5H440.728V119.895C440.728 118.53 440.361 117.48 439.626 116.745Z" fill="#0A0A0A" fill-opacity="0.8"/>
<path fill-rule="evenodd" clip-rule="evenodd" d="M453.801 122.032V122.73H445.206C445.326 123.525 445.618 124.132 446.083 124.552C446.548 124.972 447.141 125.182 447.861 125.182C448.867 125.182 449.592 124.844 450.038 124.167H453.447C453.104 125.232 452.465 126.088 451.528 126.735C450.508 127.425 449.286 127.77 447.861 127.77C446.061 127.77 444.606 127.215 443.496 126.105C442.386 124.995 441.831 123.525 441.831 121.695C441.831 119.85 442.378 118.38 443.473 117.285C444.553 116.175 446.001 115.62 447.816 115.62C449.616 115.62 451.071 116.197 452.181 117.352C453.261 118.522 453.801 120.082 453.801 122.032ZM447.771 118.207C446.331 118.207 445.483 118.972 445.228 120.502H450.358C450.238 119.782 449.953 119.22 449.503 118.815C449.053 118.41 448.476 118.207 447.771 118.207Z" fill="#0A0A0A" fill-opacity="0.8"/>
<path fill-rule="evenodd" clip-rule="evenodd" d="M462.981 111.48V117.285C462.186 116.175 461.053 115.62 459.583 115.62C458.023 115.62 456.793 116.167 455.893 117.262C454.978 118.357 454.521 119.835 454.521 121.695C454.521 123.555 454.978 125.032 455.893 126.127C456.793 127.222 458.023 127.77 459.583 127.77C461.128 127.77 462.291 127.177 463.071 125.992V127.5H466.491V111.48H462.981ZM463.048 121.695C463.048 123.87 462.216 124.957 460.551 124.957C458.901 124.957 458.076 123.9 458.076 121.785C458.076 120.705 458.293 119.88 458.728 119.31C459.163 118.725 459.771 118.432 460.551 118.432C462.216 118.432 463.048 119.52 463.048 121.695Z" fill="#0A0A0A" fill-opacity="0.8"/>
<path d="M474.784 115.71C474.844 115.71 475.099 115.725 475.549 115.755V118.95H474.649C472.594 118.95 471.566 120 471.566 122.1V127.5H468.056V115.89H471.476V118.05C472.016 116.49 473.119 115.71 474.784 115.71Z" fill="#0A0A0A" fill-opacity="0.8"/>
<path fill-rule="evenodd" clip-rule="evenodd" d="M481.713 127.77C483.558 127.77 485.035 127.215 486.145 126.105C487.24 125.01 487.788 123.54 487.788 121.695C487.788 119.835 487.24 118.357 486.145 117.262C485.05 116.167 483.573 115.62 481.713 115.62C479.853 115.62 478.375 116.167 477.28 117.262C476.17 118.372 475.615 119.85 475.615 121.695C475.615 123.525 476.17 124.995 477.28 126.105C478.39 127.215 479.868 127.77 481.713 127.77ZM483.58 124.125C483.145 124.68 482.523 124.957 481.713 124.957C480.888 124.957 480.258 124.68 479.823 124.125C479.388 123.57 479.17 122.76 479.17 121.695C479.17 120.63 479.388 119.82 479.823 119.265C480.258 118.71 480.888 118.432 481.713 118.432C482.523 118.432 483.145 118.71 483.58 119.265C484.015 119.82 484.233 120.63 484.233 121.695C484.233 122.76 484.015 123.57 483.58 124.125Z" fill="#0A0A0A" fill-opacity="0.8"/>
<path d="M495.952 115.62C497.182 115.62 498.157 115.995 498.877 116.745C499.612 117.48 499.98 118.53 499.98 119.895V127.5H496.47V120.592C496.47 119.272 495.847 118.612 494.602 118.612C493.972 118.612 493.447 118.822 493.027 119.242C492.607 119.662 492.397 120.255 492.397 121.02V127.5H488.887V115.89H492.307V117.532C493.207 116.257 494.422 115.62 495.952 115.62Z" fill="#0A0A0A" fill-opacity="0.8"/>
</g>
<mask id="path-27-inside-7_58_3075" fill="white">
<path d="M564.667 80H838.333V160H564.667V80Z"/>
</mask>
<path d="M838.333 80H837.333V160H838.333H839.333V80H838.333Z" fill="#DBDBDB" mask="url(#path-27-inside-7_58_3075)"/>
<g opacity="0.84">
<rect x="622.75" y="113.333" width="31.6667" height="13.3333" rx="6.66667" stroke="#0A0A0A" stroke-opacity="0.8" stroke-width="5"/>
</g>
<g opacity="0.84">
<path d="M667.302 109.517H663.375V127.708H667.302V109.517Z" fill="#0A0A0A" fill-opacity="0.8"/>
<path d="M673.164 110.35H669.418V127.708H673.164V123.058L678.048 127.708H683.112L675.908 120.944L682.74 115.592H677.473L673.164 119.055V110.35Z" fill="#0A0A0A" fill-opacity="0.8"/>
<path d="M732.801 109.517H728.875V127.708H742.701V124.232H732.801V109.517Z" fill="#0A0A0A" fill-opacity="0.8"/>
<path fill-rule="evenodd" clip-rule="evenodd" d="M761.082 110.35H757.336V127.708H761.322L761.182 126.685C762.065 127.611 763.278 128.068 764.812 128.068C765.816 128.068 766.737 127.811 767.542 127.243C768.341 126.678 768.948 125.905 769.389 124.931C769.83 123.956 770.06 122.846 770.06 121.605C770.06 120.408 769.829 119.321 769.389 118.347C768.947 117.371 768.34 116.62 767.542 116.057L767.538 116.055C766.738 115.514 765.82 115.232 764.812 115.232C763.219 115.232 761.973 115.725 761.082 116.723V110.35ZM761.8 119.397C762.277 118.817 762.892 118.528 763.664 118.528C764.412 118.528 765.03 118.816 765.532 119.379C766.034 119.966 766.291 120.702 766.291 121.627C766.291 122.576 766.033 123.313 765.531 123.899C765.029 124.484 764.412 124.772 763.664 124.772C762.892 124.772 762.277 124.483 761.8 123.903L761.797 123.899C761.297 123.316 761.06 122.581 761.06 121.627C761.06 120.721 761.296 119.985 761.797 119.401L761.8 119.397Z" fill="#0A0A0A" fill-opacity="0.8"/>
<path d="M685.052 109.967C684.371 109.967 683.824 110.188 683.379 110.608L683.375 110.613C682.93 111.058 682.706 111.606 682.706 112.245C682.706 112.926 682.928 113.476 683.375 113.922C683.825 114.373 684.377 114.568 685.052 114.568C685.712 114.568 686.261 114.346 686.707 113.9C687.153 113.454 687.376 112.905 687.376 112.245C687.376 111.606 687.152 111.058 686.707 110.613L686.703 110.608C686.258 110.189 685.712 109.967 685.052 109.967Z" fill="#0A0A0A" fill-opacity="0.8"/>
<path d="M718.821 109.967C718.14 109.967 717.593 110.188 717.148 110.608L717.143 110.613C716.698 111.058 716.475 111.606 716.475 112.245C716.475 112.926 716.697 113.476 717.143 113.922C717.594 114.373 718.145 114.568 718.821 114.568C719.481 114.568 720.03 114.346 720.475 113.9C720.921 113.454 721.144 112.905 721.144 112.245C721.144 111.606 720.921 111.058 720.476 110.613L720.471 110.608C720.027 110.189 719.48 109.967 718.821 109.967Z" fill="#0A0A0A" fill-opacity="0.8"/>
<path fill-rule="evenodd" clip-rule="evenodd" d="M693.744 115.232C692.714 115.232 691.795 115.513 690.995 116.055L690.991 116.057C690.196 116.618 689.564 117.368 689.143 118.348C688.702 119.325 688.496 120.435 688.496 121.672C688.496 122.888 688.702 123.954 689.145 124.887C689.565 125.821 690.176 126.528 690.978 127.024C691.782 127.543 692.7 127.776 693.744 127.776C695.327 127.776 696.572 127.339 697.451 126.445V126.712C697.451 127.776 697.249 128.498 696.852 128.935L696.849 128.938C696.451 129.396 695.844 129.632 694.981 129.632C694.257 129.632 693.711 129.521 693.304 129.297C692.91 129.081 692.685 128.757 692.646 128.314L692.63 128.124H688.86L688.879 128.35C688.996 129.751 689.561 130.825 690.611 131.541C691.628 132.251 693.05 132.568 694.824 132.568C696.91 132.568 698.516 132.096 699.602 131.108C700.691 130.116 701.22 128.64 701.22 126.712V115.592H697.21L697.349 116.577C696.48 115.685 695.27 115.232 693.744 115.232ZM692.98 119.266C693.48 118.681 694.098 118.393 694.869 118.393C695.616 118.393 696.233 118.68 696.734 119.264C697.216 119.851 697.473 120.611 697.473 121.537C697.473 122.487 697.215 123.223 696.737 123.786C696.238 124.346 695.621 124.614 694.869 124.614C694.069 124.614 693.456 124.344 692.982 123.768L692.977 123.762C692.479 123.202 692.242 122.468 692.242 121.537C692.242 120.606 692.48 119.849 692.98 119.266Z" fill="#0A0A0A" fill-opacity="0.8"/>
<path fill-rule="evenodd" clip-rule="evenodd" d="M707.92 115.232C706.89 115.232 705.971 115.513 705.171 116.055L705.167 116.057C704.372 116.618 703.74 117.368 703.319 118.325C702.878 119.302 702.671 120.389 702.671 121.605C702.671 122.842 702.878 123.952 703.319 124.929C703.739 125.907 704.37 126.68 705.167 127.243C705.972 127.811 706.893 128.068 707.92 128.068C709.443 128.068 710.653 127.632 711.523 126.732L711.385 127.708H715.396V115.592H711.385L711.526 116.588C710.644 115.689 709.435 115.232 707.92 115.232ZM706.418 121.627C706.418 120.698 706.655 119.963 707.154 119.379C707.655 118.816 708.274 118.528 709.045 118.528C709.792 118.528 710.41 118.815 710.911 119.378C711.393 119.965 711.649 120.703 711.649 121.627C711.649 122.576 711.392 123.314 710.91 123.901C710.409 124.485 709.792 124.772 709.045 124.772C708.274 124.772 707.656 124.484 707.155 123.899C706.655 123.316 706.418 122.581 706.418 121.627Z" fill="#0A0A0A" fill-opacity="0.8"/>
<path fill-rule="evenodd" clip-rule="evenodd" d="M748.308 115.232C747.278 115.232 746.36 115.513 745.559 116.055L745.555 116.057C744.76 116.618 744.128 117.368 743.708 118.325C743.266 119.302 743.06 120.389 743.06 121.605C743.06 122.842 743.266 123.952 743.707 124.929C744.127 125.907 744.759 126.68 745.555 127.243C746.36 127.811 747.281 128.068 748.308 128.068C749.833 128.068 751.043 127.632 751.913 126.73L751.777 127.708H755.784V115.592H751.777L751.916 116.59C751.034 115.69 749.824 115.232 748.308 115.232ZM746.806 121.627C746.806 120.698 747.043 119.963 747.543 119.379C748.044 118.816 748.662 118.528 749.433 118.528C750.18 118.528 750.798 118.815 751.3 119.378C751.781 119.965 752.037 120.703 752.037 121.627C752.037 122.576 751.78 123.314 751.298 123.901C750.797 124.485 750.18 124.772 749.433 124.772C748.662 124.772 748.045 124.484 747.544 123.899C747.044 123.316 746.806 122.581 746.806 121.627Z" fill="#0A0A0A" fill-opacity="0.8"/>
<path d="M777.034 115.232C775.296 115.232 773.901 115.597 772.866 116.303L772.864 116.305C771.817 117.042 771.313 118.051 771.313 119.287C771.313 120.221 771.547 120.975 772.042 121.52C772.519 122.045 773.116 122.403 773.781 122.593C774.424 122.776 775.245 122.936 776.24 123.071C777.175 123.205 777.833 123.359 778.265 123.51C778.464 123.59 778.596 123.688 778.679 123.798C778.76 123.906 778.805 124.04 778.805 124.215C778.805 124.486 778.656 124.746 778.326 124.993C778.018 125.225 777.575 125.334 776.989 125.334C776.298 125.334 775.759 125.183 775.353 124.899C774.954 124.62 774.744 124.254 774.744 123.765V123.557H771.017L771.02 123.769C771.044 125.114 771.591 126.189 772.659 126.949C773.697 127.704 775.118 128.068 776.899 128.068C778.611 128.068 779.986 127.726 781 127.018C782.021 126.307 782.552 125.344 782.552 124.102C782.552 123.122 782.295 122.346 781.8 121.802L781.797 121.799C781.302 121.28 780.708 120.899 780.038 120.707L780.036 120.707C779.375 120.524 778.533 120.342 777.534 120.206L777.527 120.205C776.631 120.116 775.982 119.983 775.585 119.815L775.576 119.812C775.391 119.744 775.271 119.653 775.197 119.55C775.123 119.449 775.082 119.319 775.082 119.152C775.082 118.813 775.208 118.538 775.515 118.307C775.805 118.095 776.229 117.966 776.831 117.966C777.463 117.966 777.933 118.133 778.296 118.413C778.628 118.708 778.81 119.103 778.851 119.619L778.866 119.811H782.571L782.551 119.584C782.434 118.25 781.892 117.183 780.897 116.401C779.907 115.623 778.621 115.232 777.034 115.232Z" fill="#0A0A0A" fill-opacity="0.8"/>
<path d="M686.926 115.592H683.156V127.708H686.926V115.592Z" fill="#0A0A0A" fill-opacity="0.8"/>
<path d="M720.694 115.592H716.925V127.708H720.694V115.592Z" fill="#0A0A0A" fill-opacity="0.8"/>
</g>
<mask id="path-31-inside-8_58_3075" fill="white">
<path d="M838.333 80H1112V160H838.333V80Z"/>
</mask>
<path d="M1112 80H1111V160H1112H1113V80H1112Z" fill="#DBDBDB" mask="url(#path-31-inside-8_58_3075)"/>
<g opacity="0.84">
<path d="M925.026 115.555V106.667H907.248V115.555H925.026Z" fill="#0A0A0A" fill-opacity="0.8"/>
<path d="M925.026 124.444C920.117 124.444 916.137 128.424 916.137 133.333L907.249 133.333L907.249 133.104C907.372 123.429 915.222 115.617 924.911 115.556L933.915 115.556V133.334H925.026L925.026 124.444Z" fill="#0A0A0A" fill-opacity="0.8"/>
</g>
<g opacity="0.84">
<path d="M942.25 127.5V111.098H946.48V123.765H953.883V127.5H942.25Z" fill="#0A0A0A" fill-opacity="0.8"/>
<path d="M960.884 127.725C959.519 127.725 958.379 127.47 957.464 126.96C956.549 126.435 955.859 125.7 955.394 124.755C954.944 123.81 954.719 122.715 954.719 121.47V121.223C954.719 119.903 954.967 118.793 955.462 117.893C955.957 116.978 956.639 116.28 957.509 115.8C958.394 115.32 959.407 115.08 960.547 115.08C961.822 115.08 962.902 115.32 963.787 115.8C964.687 116.265 965.369 116.925 965.834 117.78C966.299 118.62 966.532 119.61 966.532 120.75V122.415H958.747V122.978C958.747 123.488 958.934 123.908 959.309 124.238C959.684 124.568 960.164 124.733 960.749 124.733C961.274 124.733 961.702 124.628 962.032 124.418C962.362 124.193 962.557 123.9 962.617 123.54H966.397C966.352 124.365 966.089 125.093 965.609 125.723C965.129 126.353 964.484 126.848 963.674 127.208C962.864 127.553 961.934 127.725 960.884 127.725ZM958.747 119.895V120.008H962.617V119.895C962.617 119.25 962.437 118.778 962.077 118.478C961.717 118.163 961.252 118.005 960.682 118.005C960.112 118.005 959.647 118.17 959.287 118.5C958.927 118.815 958.747 119.28 958.747 119.895Z" fill="#0A0A0A" fill-opacity="0.8"/>
<path d="M972.066 127.725C970.971 127.725 970.078 127.478 969.388 126.983C968.713 126.488 968.218 125.79 967.903 124.89C967.588 123.975 967.431 122.918 967.431 121.718V121.133C967.431 118.988 967.851 117.45 968.691 116.52C969.531 115.575 970.656 115.103 972.066 115.103C972.831 115.103 973.521 115.268 974.136 115.598C974.766 115.913 975.231 116.378 975.531 116.993H975.711L975.913 115.305H979.671V127.5H975.711V125.835H975.531C975.231 126.435 974.766 126.9 974.136 127.23C973.521 127.56 972.831 127.725 972.066 127.725ZM973.686 124.508C974.301 124.508 974.788 124.328 975.148 123.968C975.508 123.608 975.688 123.083 975.688 122.393V120.413C975.688 119.738 975.508 119.22 975.148 118.86C974.788 118.485 974.301 118.298 973.686 118.298C973.041 118.298 972.538 118.485 972.178 118.86C971.833 119.235 971.661 119.753 971.661 120.413V122.438C971.661 123.083 971.833 123.593 972.178 123.968C972.538 124.328 973.041 124.508 973.686 124.508Z" fill="#0A0A0A" fill-opacity="0.8"/>
<path d="M982.005 131.258V115.305H985.763L985.988 116.993H986.168C986.468 116.378 986.925 115.913 987.54 115.598C988.17 115.268 988.868 115.103 989.633 115.103C990.743 115.103 991.635 115.35 992.31 115.845C992.985 116.34 993.48 117.045 993.795 117.96C994.11 118.86 994.268 119.918 994.268 121.133V121.718C994.268 123.848 993.848 125.385 993.008 126.33C992.168 127.26 991.043 127.725 989.633 127.725C988.868 127.725 988.17 127.56 987.54 127.23C986.925 126.9 986.468 126.435 986.168 125.835H985.988V131.258H982.005ZM988.013 124.508C988.658 124.508 989.153 124.328 989.498 123.968C989.858 123.593 990.038 123.083 990.038 122.438V120.413C990.038 119.753 989.858 119.235 989.498 118.86C989.153 118.485 988.658 118.298 988.013 118.298C987.413 118.298 986.925 118.485 986.55 118.86C986.19 119.22 986.01 119.738 986.01 120.413V122.393C986.01 123.083 986.19 123.608 986.55 123.968C986.925 124.328 987.413 124.508 988.013 124.508Z" fill="#0A0A0A" fill-opacity="0.8"/>
<path d="M994.703 131.258V128.153H998.933V126.173L994.14 115.305H998.28L1000.44 121.47L1000.8 122.64H1000.91L1001.27 121.47L1003.52 115.305H1007.64L1002.89 126.173V128.805C1002.89 129.63 1002.65 130.245 1002.17 130.65C1001.71 131.055 1001.09 131.258 1000.31 131.258H994.703Z" fill="#0A0A0A" fill-opacity="0.8"/>
<path d="M1013.53 127.725C1012.17 127.725 1011.03 127.47 1010.11 126.96C1009.2 126.435 1008.51 125.7 1008.04 124.755C1007.59 123.81 1007.37 122.715 1007.37 121.47V121.223C1007.37 119.903 1007.61 118.793 1008.11 117.893C1008.6 116.978 1009.29 116.28 1010.16 115.8C1011.04 115.32 1012.05 115.08 1013.19 115.08C1014.47 115.08 1015.55 115.32 1016.43 115.8C1017.33 116.265 1018.02 116.925 1018.48 117.78C1018.95 118.62 1019.18 119.61 1019.18 120.75V122.415H1011.39V122.978C1011.39 123.488 1011.58 123.908 1011.96 124.238C1012.33 124.568 1012.81 124.733 1013.4 124.733C1013.92 124.733 1014.35 124.628 1014.68 124.418C1015.01 124.193 1015.2 123.9 1015.26 123.54H1019.04C1019 124.365 1018.74 125.093 1018.26 125.723C1017.78 126.353 1017.13 126.848 1016.32 127.208C1015.51 127.553 1014.58 127.725 1013.53 127.725ZM1011.39 119.895V120.008H1015.26V119.895C1015.26 119.25 1015.08 118.778 1014.72 118.478C1014.36 118.163 1013.9 118.005 1013.33 118.005C1012.76 118.005 1012.29 118.17 1011.93 118.5C1011.57 118.815 1011.39 119.28 1011.39 119.895Z" fill="#0A0A0A" fill-opacity="0.8"/>
<path d="M1024.71 127.725C1023.62 127.725 1022.73 127.478 1022.04 126.983C1021.36 126.488 1020.87 125.79 1020.55 124.89C1020.24 123.975 1020.08 122.918 1020.08 121.718V121.133C1020.08 118.988 1020.5 117.45 1021.34 116.52C1022.18 115.575 1023.3 115.103 1024.71 115.103C1025.48 115.103 1026.17 115.268 1026.78 115.598C1027.41 115.913 1027.88 116.378 1028.18 116.993H1028.36L1028.56 115.305H1032.32V127.5H1028.36V125.835H1028.18C1027.88 126.435 1027.41 126.9 1026.78 127.23C1026.17 127.56 1025.48 127.725 1024.71 127.725ZM1026.33 124.508C1026.95 124.508 1027.44 124.328 1027.8 123.968C1028.16 123.608 1028.34 123.083 1028.34 122.393V120.413C1028.34 119.738 1028.16 119.22 1027.8 118.86C1027.44 118.485 1026.95 118.298 1026.33 118.298C1025.69 118.298 1025.19 118.485 1024.83 118.86C1024.48 119.235 1024.31 119.753 1024.31 120.413V122.438C1024.31 123.083 1024.48 123.593 1024.83 123.968C1025.19 124.328 1025.69 124.508 1026.33 124.508Z" fill="#0A0A0A" fill-opacity="0.8"/>
<path d="M1034.65 127.5V118.298C1034.65 117.398 1034.92 116.678 1035.46 116.138C1036.02 115.583 1036.74 115.305 1037.62 115.305H1042.57V118.5H1038.64V127.5H1034.65Z" fill="#0A0A0A" fill-opacity="0.8"/>
</g>
</svg>
